<?xml version="1.0" encoding="UTF-8" standalone="no"?>
<!-- Created with Inkscape (http://www.inkscape.org/) -->

<svg
   width="40.32mm"
   height="128.5mm"
   viewBox="0 0 40.320002 128.50002"
   version="1.1"
   id="svg8"
   inkscape:version="1.3.2 (091e20e, 2023-11-25)"
   sodipodi:docname="AnalogSwizzlingRegister.svg"
   xmlns:inkscape="http://www.inkscape.org/namespaces/inkscape"
   xmlns:sodipodi="http://sodipodi.sourceforge.net/DTD/sodipodi-0.dtd"
   xmlns="http://www.w3.org/2000/svg"
   xmlns:svg="http://www.w3.org/2000/svg"
   xmlns:rdf="http://www.w3.org/1999/02/22-rdf-syntax-ns#"
   xmlns:cc="http://creativecommons.org/ns#"
   xmlns:dc="http://purl.org/dc/elements/1.1/">
  <defs
     id="defs2" />
  <sodipodi:namedview
     id="base"
     pagecolor="#ffffff"
     bordercolor="#666666"
     borderopacity="1.0"
     inkscape:pageopacity="0.0"
     inkscape:pageshadow="2"
     inkscape:zoom="3.5069734"
     inkscape:cx="75.278585"
     inkscape:cy="125.74946"
     inkscape:document-units="mm"
     inkscape:current-layer="layer2"
     showgrid="false"
     units="mm"
     inkscape:snap-bbox="true"
     inkscape:snap-page="true"
     inkscape:bbox-nodes="false"
     inkscape:snap-bbox-edge-midpoints="false"
     inkscape:window-width="1440"
     inkscape:window-height="847"
     inkscape:window-x="0"
     inkscape:window-y="25"
     inkscape:window-maximized="0"
     inkscape:snap-bbox-midpoints="true"
     inkscape:snap-nodes="false"
     inkscape:showpageshadow="2"
     inkscape:pagecheckerboard="0"
     inkscape:deskcolor="#d1d1d1"
     showguides="true">
    <sodipodi:guide
       position="10.01042,86.166794"
       orientation="1,0"
       id="guide2"
       inkscape:locked="false" />
    <sodipodi:guide
       position="4.9808773,60.162382"
       orientation="1,0"
       id="guide3"
       inkscape:locked="false" />
    <sodipodi:guide
       position="14.995087,131.62825"
       orientation="1,0"
       id="guide4"
       inkscape:locked="false" />
    <sodipodi:guide
       position="0.034002465,136.04857"
       orientation="1,0"
       id="guide1"
       inkscape:locked="false" />
    <sodipodi:guide
       position="19.993449,129.41809"
       orientation="1,0"
       id="guide5"
       inkscape:locked="false" />
    <sodipodi:guide
       position="30.024175,134.51846"
       orientation="1,0"
       id="guide6"
       inkscape:locked="false" />
    <sodipodi:guide
       position="40.0209,134.55246"
       orientation="1,0"
       id="guide7"
       inkscape:locked="false" />
    <sodipodi:guide
       position="24.983479,76.078033"
       orientation="1,0"
       id="guide8"
       inkscape:locked="false" />
    <sodipodi:guide
       position="35.016367,79.09116"
       orientation="1,0"
       id="guide9"
       inkscape:locked="false" />
    <sodipodi:guide
       position="19.412782,8.9496285"
       orientation="0,-1"
       id="guide10"
       inkscape:locked="false" />
    <sodipodi:guide
       position="26.449917,117.33767"
       orientation="0,-1"
       id="guide11"
       inkscape:locked="false" />
    <sodipodi:guide
       position="26.877421,14.312454"
       orientation="0,-1"
       id="guide12"
       inkscape:locked="false" />
  </sodipodi:namedview>
  <metadata
     id="metadata5">
    <rdf:RDF>
      <cc:Work
         rdf:about="">
        <dc:format>image/svg+xml</dc:format>
        <dc:type
           rdf:resource="http://purl.org/dc/dcmitype/StillImage" />
      </cc:Work>
    </rdf:RDF>
  </metadata>
  <g
     inkscape:label="Layer 1"
     inkscape:groupmode="layer"
     id="layer1"
     transform="translate(0,-168.49998)">
    <rect
       style="display:inline;opacity:1;vector-effect:none;fill:#1e1e1e;fill-opacity:1;fill-rule:evenodd;stroke:none;stroke-width:0.746632;stroke-linecap:butt;stroke-linejoin:miter;stroke-miterlimit:4;stroke-dasharray:none;stroke-dashoffset:0;stroke-opacity:1;paint-order:normal"
       id="rect420"
       width="40.295719"
       height="128.5"
       x="5.9211732e-17"
       y="168.49997" />
    <rect
       style="fill:#a68af9;stroke-width:0.338577"
       id="rect23-8"
       width="9.2801981"
       height="64.137527"
       x="30.926695"
       y="-282.67767"
       transform="scale(1,-1)" />
    <g
       id="g21"
       style="display:inline">
      <text
         xml:space="preserve"
         style="font-style:normal;font-variant:normal;font-weight:normal;font-stretch:normal;font-size:3.175px;line-height:0.95;font-family:Lato;-inkscape-font-specification:'Lato, Normal';font-variant-ligatures:normal;font-variant-caps:normal;font-variant-numeric:normal;font-variant-east-asian:normal;text-align:center;letter-spacing:-0.132292px;text-anchor:middle;display:inline;fill:#dadada;fill-opacity:1;stroke-width:0.264583"
         x="7.86128"
         y="215.92404"
         id="text2-9-3"
         inkscape:label="input"><tspan
           sodipodi:role="line"
           id="tspan8-7-1"
           x="7.7951341"
           y="215.92404">INDEX</tspan></text>
      <text
         xml:space="preserve"
         style="font-style:normal;font-variant:normal;font-weight:normal;font-stretch:normal;font-size:3.175px;line-height:0.95;font-family:Lato;-inkscape-font-specification:'Lato, Normal';font-variant-ligatures:normal;font-variant-caps:normal;font-variant-numeric:normal;font-variant-east-asian:normal;text-align:center;letter-spacing:-0.132292px;text-anchor:middle;display:inline;fill:#dadada;fill-opacity:1;stroke-width:0.264583"
         x="19.852024"
         y="198.75252"
         id="text2-9-3-6"
         inkscape:label="input"><tspan
           sodipodi:role="line"
           id="tspan8-7-1-4"
           x="19.785879"
           y="198.75252">PRESET</tspan></text>
      <text
         xml:space="preserve"
         style="font-style:normal;font-variant:normal;font-weight:normal;font-stretch:normal;font-size:3.175px;line-height:0.95;font-family:Lato;-inkscape-font-specification:'Lato, Normal';font-variant-ligatures:normal;font-variant-caps:normal;font-variant-numeric:normal;font-variant-east-asian:normal;text-align:center;letter-spacing:-0.132292px;text-anchor:middle;display:inline;fill:#dadada;fill-opacity:1;stroke-width:0.264583"
         x="20.006277"
         y="215.92406"
         id="text2-9-3-9"
         inkscape:label="1voct"><tspan
           sodipodi:role="line"
           id="tspan8-7-1-2"
           x="19.94013"
           y="215.92406">NEXT</tspan></text>
      <text
         xml:space="preserve"
         style="font-style:normal;font-variant:normal;font-weight:normal;font-stretch:normal;font-size:3.175px;line-height:0.95;font-family:Lato;-inkscape-font-specification:'Lato, Normal';font-variant-ligatures:normal;font-variant-caps:normal;font-variant-numeric:normal;font-variant-east-asian:normal;text-align:center;letter-spacing:-0.132292px;text-anchor:middle;display:inline;fill:#dadada;fill-opacity:1;stroke-width:0.264583"
         x="32.125454"
         y="215.92406"
         id="text2-9-3-9-2"
         inkscape:label="1voct"><tspan
           sodipodi:role="line"
           x="32.059307"
           y="215.92406"
           id="tspan38">RESET</tspan></text>
      <text
         xml:space="preserve"
         style="font-style:normal;font-variant:normal;font-weight:bold;font-stretch:normal;font-size:3.175px;line-height:0.95;font-family:Lato;-inkscape-font-specification:'Lato, Bold';font-variant-ligatures:normal;font-variant-caps:normal;font-variant-numeric:normal;font-variant-east-asian:normal;text-align:center;letter-spacing:-0.132292px;text-anchor:middle;fill:#dadada;fill-opacity:1;stroke-width:0.264583"
         x="19.940866"
         y="182.28876"
         id="text32"
         inkscape:label="mask"><tspan
           sodipodi:role="line"
           id="tspan34"
           x="19.87472"
           y="182.28876">REGISTER</tspan></text>
      <text
         xml:space="preserve"
         style="font-style:normal;font-variant:normal;font-weight:bold;font-stretch:normal;font-size:3.175px;line-height:0.95;font-family:Lato;-inkscape-font-specification:'Lato, Bold';font-variant-ligatures:normal;font-variant-caps:normal;font-variant-numeric:normal;font-variant-east-asian:normal;text-align:center;letter-spacing:-0.132292px;text-anchor:middle;display:inline;fill:#dadada;fill-opacity:1;stroke-width:0.264583"
         x="11.790939"
         y="179.32712"
         id="text2"
         inkscape:label="probabilistic"><tspan
           sodipodi:role="line"
           id="tspan35"
           x="11.724793"
           y="179.32712"
           style="letter-spacing:-0.132292px">ANALOG</tspan></text>
      <text
         xml:space="preserve"
         style="font-style:normal;font-variant:normal;font-weight:bold;font-stretch:normal;font-size:3.175px;line-height:0.95;font-family:Lato;-inkscape-font-specification:'Lato, Bold';font-variant-ligatures:normal;font-variant-caps:normal;font-variant-numeric:normal;font-variant-east-asian:normal;text-align:center;letter-spacing:-0.132292px;text-anchor:middle;fill:#a68af9;fill-opacity:1;stroke-width:0.264583"
         x="26.533527"
         y="179.32675"
         id="text35"
         inkscape:label="ramp"><tspan
           sodipodi:role="line"
           id="tspan53"
           x="26.467382"
           y="179.32675">SWIZZLING</tspan></text>
      <text
         xml:space="preserve"
         style="font-style:normal;font-variant:normal;font-weight:900;font-stretch:normal;font-size:3.175px;line-height:0.95;font-family:Lato;-inkscape-font-specification:'Lato, Heavy';font-variant-ligatures:normal;font-variant-caps:normal;font-variant-numeric:normal;font-variant-east-asian:normal;text-align:center;letter-spacing:-0.132292px;text-anchor:middle;fill:#a68af9;fill-opacity:1;stroke-width:0.264583"
         x="15.289962"
         y="289.12271"
         id="text2-3"
         inkscape:label="phasor"><tspan
           sodipodi:role="line"
           id="tspan11"
           x="15.464059"
           y="289.12271">PHASOR </tspan></text>
      <text
         xml:space="preserve"
         style="font-style:normal;font-variant:normal;font-weight:900;font-stretch:normal;font-size:3.175px;line-height:0.95;font-family:Lato;-inkscape-font-specification:'Lato, Heavy';font-variant-ligatures:normal;font-variant-caps:normal;font-variant-numeric:normal;font-variant-east-asian:normal;text-align:center;letter-spacing:-0.132292px;text-anchor:middle;fill:#dadada;fill-opacity:1;stroke-width:0.264583"
         x="26.415918"
         y="289.1059"
         id="text2-3-9"
         inkscape:label="space"><tspan
           sodipodi:role="line"
           id="tspan11-0"
           x="26.349771"
           y="289.1059">SPACE</tspan></text>
      <text
         xml:space="preserve"
         style="font-style:normal;font-variant:normal;font-weight:normal;font-stretch:normal;font-size:3.175px;line-height:0.95;font-family:Lato;-inkscape-font-specification:'Lato, Normal';font-variant-ligatures:normal;font-variant-caps:normal;font-variant-numeric:normal;font-variant-east-asian:normal;text-align:center;letter-spacing:-0.132292px;text-anchor:middle;display:inline;fill:#dadada;fill-opacity:1;stroke-width:0.264583"
         x="5.9105425"
         y="234.39645"
         id="text2-9-3-0"
         inkscape:label="1voct"><tspan
           sodipodi:role="line"
           id="tspan8-7-1-6"
           x="5.8443966"
           y="234.39645">FREQ</tspan></text>
      <text
         xml:space="preserve"
         style="font-style:normal;font-variant:normal;font-weight:normal;font-stretch:normal;font-size:3.175px;line-height:0.95;font-family:Lato;-inkscape-font-specification:'Lato, Normal';font-variant-ligatures:normal;font-variant-caps:normal;font-variant-numeric:normal;font-variant-east-asian:normal;text-align:center;letter-spacing:-0.132292px;text-anchor:middle;display:inline;fill:#dadada;fill-opacity:1;stroke-width:0.264583"
         x="5.9103341"
         y="252.38745"
         id="text2-9-3-0-2"
         inkscape:label="1voct"><tspan
           sodipodi:role="line"
           id="tspan8-7-1-6-8"
           x="5.8441882"
           y="252.38745">INPUT</tspan></text>
      <text
         xml:space="preserve"
         style="font-style:normal;font-variant:normal;font-weight:normal;font-stretch:normal;font-size:3.175px;line-height:0.95;font-family:Lato;-inkscape-font-specification:'Lato, Normal';font-variant-ligatures:normal;font-variant-caps:normal;font-variant-numeric:normal;font-variant-east-asian:normal;text-align:center;letter-spacing:-0.132292px;text-anchor:middle;display:inline;fill:#dadada;fill-opacity:1;stroke-width:0.264583"
         x="5.9103341"
         y="270.37946"
         id="text2-9-3-0-2-3"
         inkscape:label="1voct"><tspan
           sodipodi:role="line"
           id="tspan8-7-1-6-8-6"
           x="5.8441882"
           y="270.37946">CLOCK</tspan></text>
    </g>
    <g
       id="g61"
       style="display:inline">
      <path
         d="m 3.9412156,215.92404 h -0.307975 v -2.27489 h 0.307975 z m 0.6360555,-2.27489 q 0.041275,0 0.060325,0.0111 0.020638,0.01 0.046038,0.0413 l 1.317625,1.7145 q -0.00476,-0.0413 -0.00635,-0.0794 -0.00159,-0.0397 -0.00159,-0.0762 v -1.61132 h 0.269875 v 2.27489 h -0.155575 q -0.036513,0 -0.061913,-0.0127 -0.023813,-0.0127 -0.047625,-0.0429 l -1.3160375,-1.71291 q 0.00317,0.0397 0.00476,0.0778 0.00159,0.0381 0.00159,0.0699 v 1.62084 h -0.269875 v -2.27489 h 0.15875 z m 4.0809347,1.13824 q 0,0.25559 -0.080963,0.46514 -0.080963,0.20955 -0.2286,0.35877 -0.1476375,0.14923 -0.3540125,0.23178 -0.206375,0.081 -0.4571999,0.081 h -0.8509 v -2.27489 h 0.8509 q 0.2508249,0 0.4571999,0.0825 0.206375,0.081 0.3540125,0.23178 0.1476375,0.14922 0.2286,0.35877 0.080963,0.20955 0.080963,0.46514 z m -0.3159125,0 q 0,-0.20955 -0.05715,-0.37465 -0.05715,-0.1651 -0.161925,-0.2794 -0.104775,-0.1143 -0.254,-0.17462 -0.1492249,-0.0603 -0.3317874,-0.0603 H 6.9960934 v 1.77641 h 0.5413375 q 0.1825625,0 0.3317874,-0.0603 0.149225,-0.0603 0.254,-0.17304 0.104775,-0.1143 0.161925,-0.2794 0.05715,-0.1651 0.05715,-0.37465 z m 2.0044837,-1.13824 v 0.25083 H 9.2545768 v 0.75565 h 0.8842372 v 0.2413 H 9.2545768 v 0.77629 h 1.0922002 v 0.25082 H 8.9450143 v -2.27489 z m 0.839256,1.10649 -0.750887,-1.10649 h 0.306387 q 0.03334,0 0.04921,0.0111 0.01587,0.0111 0.02858,0.0318 l 0.593725,0.91122 q 0.01111,-0.0333 0.03334,-0.073 l 0.560388,-0.83185 q 0.01429,-0.0222 0.03016,-0.0349 0.01746,-0.0143 0.04128,-0.0143 h 0.293688 l -0.754063,1.0922 0.779463,1.18269 h -0.3048 q -0.03493,0 -0.05556,-0.0175 -0.01905,-0.019 -0.03175,-0.0413 l -0.6096,-0.95408 q -0.01111,0.0333 -0.02858,0.0635 l -0.593725,0.89058 q -0.01429,0.0222 -0.03334,0.0413 -0.01746,0.0175 -0.0508,0.0175 h -0.28575 z"
         id="text49"
         style="font-size:3.175px;line-height:0.95;font-family:Lato;-inkscape-font-specification:'Lato, Normal';text-align:center;letter-spacing:-0.132292px;text-anchor:middle;fill:#dadada;stroke-width:0.264583"
         inkscape:label="input"
         aria-label="INDEX" />
      <path
         d="m 15.182131,197.90162 v 0.8509 h -0.306387 v -2.27489 h 0.671512 q 0.2159,0 0.37465,0.0508 0.160338,0.0492 0.265113,0.14129 0.104775,0.0921 0.155575,0.22225 0.05239,0.13017 0.05239,0.29051 0,0.15875 -0.05556,0.29051 -0.05556,0.13177 -0.163513,0.22702 -0.106362,0.0953 -0.265112,0.14922 -0.15875,0.0524 -0.363538,0.0524 z m 0,-0.24448 h 0.365125 q 0.131763,0 0.231775,-0.0349 0.1016,-0.0349 0.169863,-0.0968 0.06826,-0.0635 0.103187,-0.15081 0.03492,-0.0873 0.03492,-0.19209 0,-0.21749 -0.134937,-0.33972 -0.13335,-0.12224 -0.404813,-0.12224 h -0.365125 z m 1.807633,0.14605 v 0.94933 h -0.306387 v -2.27489 h 0.642937 q 0.2159,0 0.373063,0.0444 0.157162,0.0429 0.258762,0.12541 0.103188,0.0825 0.1524,0.20003 0.04921,0.11589 0.04921,0.26035 0,0.12065 -0.0381,0.22542 -0.0381,0.10478 -0.111125,0.18892 -0.07144,0.0825 -0.176213,0.14128 -0.103187,0.0587 -0.23495,0.0889 0.05715,0.0333 0.1016,0.0968 l 0.663575,0.90329 h -0.27305 q -0.08414,0 -0.123825,-0.0651 l -0.59055,-0.8128 q -0.02699,-0.0381 -0.05874,-0.054 -0.03175,-0.0175 -0.09525,-0.0175 z m 0,-0.22383 h 0.322263 q 0.134937,0 0.236537,-0.0318 0.103188,-0.0333 0.17145,-0.0921 0.06985,-0.0603 0.104775,-0.14287 0.03493,-0.0825 0.03493,-0.18257 0,-0.2032 -0.134937,-0.30638 -0.13335,-0.10319 -0.398463,-0.10319 h -0.33655 z m 2.97603,-1.10173 v 0.25083 h -1.0922 v 0.75565 h 0.884238 v 0.2413 h -0.884238 v 0.77628 h 1.0922 v 0.25083 h -1.401762 v -2.27489 z m 1.475844,0.3556 q -0.01429,0.0238 -0.03016,0.0365 -0.01587,0.0111 -0.04127,0.0111 -0.02699,0 -0.0635,-0.027 -0.03492,-0.027 -0.09049,-0.0587 -0.05398,-0.0333 -0.131763,-0.0603 -0.0762,-0.027 -0.185737,-0.027 -0.103188,0 -0.182563,0.0286 -0.07937,0.027 -0.13335,0.0746 -0.05239,0.0476 -0.07937,0.11271 -0.02699,0.0635 -0.02699,0.13811 0,0.0953 0.04604,0.15875 0.04763,0.0619 0.123825,0.10636 0.07779,0.0444 0.174625,0.0778 0.09843,0.0317 0.200025,0.0667 0.103188,0.0349 0.200025,0.0794 0.09843,0.0429 0.174625,0.10954 0.07779,0.0667 0.123825,0.16351 0.04763,0.0968 0.04763,0.23813 0,0.14922 -0.0508,0.28098 -0.0508,0.13018 -0.149225,0.22702 -0.09684,0.0968 -0.239712,0.1524 -0.141288,0.0556 -0.322263,0.0556 -0.220662,0 -0.403225,-0.0794 -0.180975,-0.081 -0.309562,-0.21748 l 0.0889,-0.14605 q 0.0127,-0.0175 0.03016,-0.0286 0.01905,-0.0127 0.04128,-0.0127 0.03334,0 0.0762,0.0365 0.04286,0.0349 0.106363,0.0778 0.06509,0.0429 0.155575,0.0794 0.09207,0.0349 0.223837,0.0349 0.109538,0 0.195263,-0.0302 0.08573,-0.0302 0.144462,-0.0841 0.06033,-0.0556 0.09208,-0.13176 0.03175,-0.0762 0.03175,-0.16986 0,-0.10319 -0.04763,-0.16828 -0.04604,-0.0667 -0.122237,-0.11112 -0.0762,-0.0445 -0.174625,-0.0746 -0.09684,-0.0317 -0.200025,-0.0635 -0.1016,-0.0333 -0.200025,-0.0762 -0.09684,-0.0429 -0.173038,-0.11112 -0.0762,-0.0683 -0.123825,-0.16986 -0.04604,-0.10319 -0.04604,-0.254 0,-0.12065 0.04604,-0.23337 0.04763,-0.11271 0.136525,-0.20002 0.0889,-0.0873 0.219075,-0.1397 0.131763,-0.0524 0.301625,-0.0524 0.1905,0 0.347663,0.0603 0.157162,0.0603 0.274637,0.17462 z m 1.786998,-0.3556 v 0.25083 h -1.0922 v 0.75565 h 0.884237 v 0.2413 h -0.884237 v 0.77628 h 1.0922 v 0.25083 h -1.401763 v -2.27489 z m 1.860018,0 v 0.25876 h -0.735013 v 2.01613 h -0.307975 v -2.01613 h -0.738187 v -0.25876 z"
         id="text50"
         style="font-size:3.175px;line-height:0.95;font-family:Lato;-inkscape-font-specification:'Lato, Normal';text-align:center;letter-spacing:-0.132292px;text-anchor:middle;fill:#dadada;stroke-width:0.264583"
         inkscape:label="input"
         aria-label="PRESET" />
      <path
         d="m 16.559816,213.64917 q 0.04127,0 0.06032,0.0111 0.02064,0.01 0.04604,0.0413 l 1.317625,1.7145 q -0.0048,-0.0413 -0.0064,-0.0794 -0.0016,-0.0397 -0.0016,-0.0762 v -1.61131 h 0.269875 v 2.27489 h -0.155575 q -0.03651,0 -0.06191,-0.0127 -0.02381,-0.0127 -0.04763,-0.0429 l -1.316037,-1.71291 q 0.0032,0.0397 0.0048,0.0778 0.0016,0.0381 0.0016,0.0699 v 1.62084 h -0.269875 v -2.27489 h 0.15875 z m 3.511022,0 v 0.25082 h -1.0922 v 0.75565 h 0.884237 v 0.2413 h -0.884237 v 0.77629 h 1.0922 v 0.25083 h -1.401763 v -2.27489 z m 0.839256,1.10649 -0.750888,-1.10649 h 0.306388 q 0.03334,0 0.04921,0.0111 0.01588,0.0111 0.02858,0.0317 l 0.593725,0.91123 q 0.01111,-0.0333 0.03334,-0.073 l 0.560387,-0.83185 q 0.01429,-0.0222 0.03016,-0.0349 0.01746,-0.0143 0.04127,-0.0143 h 0.293687 l -0.754062,1.0922 0.779462,1.18269 h -0.3048 q -0.03492,0 -0.05556,-0.0175 -0.01905,-0.019 -0.03175,-0.0413 l -0.6096,-0.95409 q -0.01111,0.0333 -0.02858,0.0635 l -0.593725,0.89059 q -0.01429,0.0222 -0.03334,0.0413 -0.01746,0.0175 -0.0508,0.0175 h -0.28575 z m 2.929994,-1.10649 v 0.25876 h -0.735012 v 2.01613 h -0.307975 v -2.01613 h -0.738188 v -0.25876 z"
         id="text51"
         style="font-size:3.175px;line-height:0.95;font-family:Lato;-inkscape-font-specification:'Lato, Normal';text-align:center;letter-spacing:-0.132292px;text-anchor:middle;fill:#dadada;stroke-width:0.264583"
         inkscape:label="1voct"
         aria-label="NEXT" />
      <path
         d="m 28.359378,214.97473 v 0.94933 H 28.05299 v -2.27489 h 0.642938 q 0.2159,0 0.373062,0.0445 0.157163,0.0429 0.258763,0.12541 0.103187,0.0825 0.1524,0.20003 0.04921,0.11588 0.04921,0.26035 0,0.12065 -0.0381,0.22542 -0.0381,0.10478 -0.111125,0.18891 -0.07144,0.0825 -0.176212,0.14129 -0.103188,0.0587 -0.23495,0.0889 0.05715,0.0333 0.1016,0.0968 l 0.663575,0.90329 h -0.27305 q -0.08414,0 -0.123825,-0.0651 l -0.59055,-0.8128 q -0.02699,-0.0381 -0.05874,-0.054 -0.03175,-0.0175 -0.09525,-0.0175 z m 0,-0.22384 h 0.322262 q 0.134938,0 0.236538,-0.0317 0.103187,-0.0333 0.17145,-0.0921 0.06985,-0.0603 0.104775,-0.14288 0.03492,-0.0826 0.03492,-0.18256 0,-0.2032 -0.134938,-0.30639 -0.13335,-0.10318 -0.398462,-0.10318 h -0.33655 z m 2.97603,-1.10172 v 0.25082 h -1.0922 v 0.75565 h 0.884237 v 0.2413 h -0.884237 v 0.77629 h 1.0922 v 0.25083 h -1.401763 v -2.27489 z m 1.475843,0.3556 q -0.01429,0.0238 -0.03016,0.0365 -0.01588,0.0111 -0.04127,0.0111 -0.02699,0 -0.0635,-0.027 -0.03493,-0.027 -0.09049,-0.0587 -0.05397,-0.0333 -0.131762,-0.0603 -0.0762,-0.027 -0.185738,-0.027 -0.103187,0 -0.182562,0.0286 -0.07937,0.027 -0.13335,0.0746 -0.05239,0.0476 -0.07938,0.11272 -0.02699,0.0635 -0.02699,0.13811 0,0.0952 0.04604,0.15875 0.04763,0.0619 0.123825,0.10636 0.07779,0.0445 0.174625,0.0778 0.09842,0.0318 0.200025,0.0667 0.103187,0.0349 0.200025,0.0794 0.09842,0.0429 0.174625,0.10954 0.07779,0.0667 0.123825,0.16351 0.04763,0.0968 0.04763,0.23812 0,0.14923 -0.0508,0.28099 -0.0508,0.13018 -0.149225,0.22701 -0.09684,0.0968 -0.239713,0.1524 -0.141287,0.0556 -0.322262,0.0556 -0.220663,0 -0.403225,-0.0794 -0.180975,-0.081 -0.309563,-0.21749 l 0.0889,-0.14605 q 0.0127,-0.0175 0.03016,-0.0286 0.01905,-0.0127 0.04127,-0.0127 0.03334,0 0.0762,0.0365 0.04286,0.0349 0.106362,0.0778 0.06509,0.0429 0.155575,0.0794 0.09207,0.0349 0.223838,0.0349 0.109537,0 0.195262,-0.0302 0.08572,-0.0302 0.144463,-0.0841 0.06032,-0.0556 0.09208,-0.13176 0.03175,-0.0762 0.03175,-0.16987 0,-0.10318 -0.04763,-0.16827 -0.04604,-0.0667 -0.122238,-0.11113 -0.0762,-0.0444 -0.174625,-0.0746 -0.09684,-0.0318 -0.200025,-0.0635 -0.1016,-0.0333 -0.200025,-0.0762 -0.09684,-0.0429 -0.173037,-0.11112 -0.0762,-0.0683 -0.123825,-0.16987 -0.04604,-0.10318 -0.04604,-0.254 0,-0.12065 0.04604,-0.23336 0.04763,-0.11271 0.136525,-0.20002 0.0889,-0.0873 0.219075,-0.1397 0.131762,-0.0524 0.301625,-0.0524 0.1905,0 0.347662,0.0603 0.157163,0.0603 0.274638,0.17463 z m 1.786998,-0.3556 v 0.25082 h -1.0922 v 0.75565 h 0.884237 v 0.2413 h -0.884237 v 0.77629 h 1.0922 v 0.25083 h -1.401763 v -2.27489 z m 1.860018,0 v 0.25876 h -0.735012 v 2.01613 H 35.41528 v -2.01613 h -0.738188 v -0.25876 z"
         id="text52"
         style="font-size:3.175px;line-height:0.95;font-family:Lato;-inkscape-font-specification:'Lato, Normal';text-align:center;letter-spacing:-0.132292px;text-anchor:middle;fill:#dadada;stroke-width:0.264583"
         inkscape:label="1voct"
         aria-label="RESET" />
      <path
         d="m 13.737181,181.39182 v 0.89694 h -0.427037 v -2.29553 h 0.700087 q 0.23495,0 0.401638,0.0492 0.168275,0.0476 0.274637,0.13494 0.10795,0.0873 0.157163,0.20955 0.0508,0.12065 0.0508,0.2667 0,0.11589 -0.03493,0.21908 -0.03334,0.10318 -0.09842,0.18732 -0.0635,0.0841 -0.15875,0.14764 -0.09366,0.0635 -0.214313,0.1016 0.08096,0.046 0.1397,0.13176 l 0.574675,0.84773 h -0.384175 q -0.05556,0 -0.09525,-0.0222 -0.0381,-0.0222 -0.06509,-0.0635 l -0.4826,-0.73501 q -0.02699,-0.0413 -0.06033,-0.0587 -0.03175,-0.0175 -0.09525,-0.0175 z m 0,-0.30639 h 0.2667 q 0.12065,0 0.20955,-0.0302 0.09049,-0.0302 0.147638,-0.0825 0.05874,-0.054 0.08731,-0.127 0.02858,-0.073 0.02858,-0.16034 0,-0.17462 -0.115887,-0.26829 -0.1143,-0.0937 -0.350838,-0.0937 h -0.27305 z m 2.95381,-1.0922 v 0.33973 h -1.017587 v 0.63658 h 0.801687 v 0.32862 h -0.801687 v 0.64928 h 1.017587 v 0.34132 h -1.4478 v -2.29553 z m 1.291696,1.9812 q 0.144463,0 0.250825,-0.0254 0.10795,-0.027 0.204788,-0.073 v -0.41752 h -0.287338 q -0.04127,0 -0.06509,-0.0222 -0.02381,-0.0238 -0.02381,-0.0572 v -0.2413 h 0.763588 v 0.92869 q -0.08731,0.0635 -0.182563,0.11112 -0.09366,0.046 -0.201612,0.0762 -0.106363,0.0302 -0.2286,0.0445 -0.122238,0.0159 -0.263525,0.0159 -0.250825,0 -0.461963,-0.0873 -0.211137,-0.0873 -0.365125,-0.24288 -0.153987,-0.15558 -0.2413,-0.37148 -0.08573,-0.2159 -0.08573,-0.47149 0,-0.25876 0.08414,-0.47466 0.08414,-0.2159 0.238125,-0.37147 0.155575,-0.15558 0.376237,-0.2413 0.220663,-0.0857 0.4953,-0.0857 0.280988,0 0.485775,0.0841 0.206375,0.0825 0.34925,0.2159 l -0.123825,0.19367 q -0.03651,0.0587 -0.09684,0.0587 -0.0381,0 -0.07779,-0.0254 -0.0508,-0.0302 -0.104775,-0.0603 -0.05239,-0.0302 -0.117475,-0.0524 -0.0635,-0.0222 -0.144462,-0.0365 -0.07937,-0.0143 -0.18415,-0.0143 -0.169863,0 -0.307975,0.0572 -0.136525,0.0572 -0.233363,0.16351 -0.09684,0.10636 -0.149225,0.25559 -0.05239,0.14922 -0.05239,0.33337 0,0.19844 0.05556,0.35402 0.05556,0.15398 0.155575,0.26035 0.100013,0.10636 0.238125,0.16351 0.138113,0.0556 0.301625,0.0556 z m 1.590144,0.31433 h -0.428625 v -2.29553 h 0.428625 z m 1.613956,-1.87802 q -0.01746,0.0349 -0.04127,0.0492 -0.02222,0.0143 -0.05398,0.0143 -0.03175,0 -0.07144,-0.0238 -0.03969,-0.0254 -0.09366,-0.0556 -0.05398,-0.0302 -0.127,-0.054 -0.07144,-0.0254 -0.169863,-0.0254 -0.0889,0 -0.155575,0.0222 -0.06509,0.0206 -0.111125,0.0587 -0.04445,0.0381 -0.06668,0.0921 -0.02223,0.0524 -0.02223,0.11589 0,0.081 0.04445,0.13494 0.04604,0.054 0.12065,0.0921 0.07461,0.0381 0.169863,0.0683 0.09525,0.0302 0.193675,0.0651 0.100012,0.0333 0.195262,0.0794 0.09525,0.0444 0.169863,0.1143 0.07461,0.0683 0.119062,0.16827 0.04604,0.10001 0.04604,0.24289 0,0.15557 -0.05398,0.2921 -0.05239,0.13494 -0.155575,0.23654 -0.1016,0.10001 -0.249238,0.15875 -0.147637,0.0571 -0.338137,0.0571 -0.109538,0 -0.2159,-0.0222 -0.106363,-0.0206 -0.204788,-0.0603 -0.09684,-0.0397 -0.182562,-0.0952 -0.08414,-0.0556 -0.150813,-0.12383 l 0.123825,-0.20479 q 0.01746,-0.0222 0.04127,-0.0365 0.0254,-0.0159 0.05556,-0.0159 0.03969,0 0.08573,0.0333 0.04604,0.0317 0.10795,0.0714 0.0635,0.0397 0.147637,0.073 0.08573,0.0318 0.204788,0.0318 0.182562,0 0.282575,-0.0857 0.100012,-0.0873 0.100012,-0.24924 0,-0.0905 -0.04604,-0.14763 -0.04445,-0.0572 -0.119063,-0.0953 -0.07461,-0.0397 -0.169862,-0.0667 -0.09525,-0.027 -0.193675,-0.0587 -0.09842,-0.0317 -0.193675,-0.0762 -0.09525,-0.0445 -0.169863,-0.11588 -0.07461,-0.0714 -0.12065,-0.1778 -0.04445,-0.10795 -0.04445,-0.26512 0,-0.12541 0.04921,-0.24447 0.0508,-0.11906 0.14605,-0.21114 0.09684,-0.0921 0.236537,-0.14764 0.1397,-0.0556 0.319088,-0.0556 0.2032,0 0.37465,0.0635 0.17145,0.0635 0.2921,0.1778 z m 1.958449,-0.41751 v 0.35084 h -0.690563 v 1.94469 h -0.427037 v -1.94469 h -0.693738 v -0.35084 z m 1.586967,0 v 0.33973 h -1.017587 v 0.63658 h 0.801687 v 0.32862 h -0.801687 v 0.64928 h 1.017587 v 0.34132 h -1.4478 v -2.29553 z m 0.678922,1.39859 v 0.89694 h -0.427038 v -2.29553 h 0.700088 q 0.23495,0 0.401637,0.0492 0.168275,0.0476 0.274638,0.13494 0.10795,0.0873 0.157162,0.20955 0.0508,0.12065 0.0508,0.2667 0,0.11589 -0.03492,0.21908 -0.03334,0.10318 -0.09843,0.18732 -0.0635,0.0841 -0.15875,0.14764 -0.09366,0.0635 -0.214312,0.1016 0.08096,0.046 0.1397,0.13176 l 0.574675,0.84773 H 26.3922 q -0.05556,0 -0.09525,-0.0222 -0.0381,-0.0222 -0.06509,-0.0635 l -0.4826,-0.73501 q -0.02699,-0.0413 -0.06033,-0.0587 -0.03175,-0.0175 -0.09525,-0.0175 z m 0,-0.30639 h 0.2667 q 0.12065,0 0.20955,-0.0302 0.09049,-0.0302 0.147637,-0.0825 0.05874,-0.054 0.08731,-0.127 0.02858,-0.073 0.02858,-0.16034 0,-0.17462 -0.115888,-0.26829 -0.1143,-0.0937 -0.350837,-0.0937 h -0.27305 z"
         id="text54"
         style="font-weight:bold;font-size:3.175px;line-height:0.95;font-family:Lato;-inkscape-font-specification:'Lato, Bold';text-align:center;letter-spacing:-0.132292px;text-anchor:middle;fill:#dadada;stroke-width:0.264583"
         inkscape:label="mask"
         aria-label="REGISTER" />
      <path
         d="m 7.7425553,179.32712 h -0.3302 q -0.055562,0 -0.092075,-0.027 -0.034925,-0.0286 -0.0508,-0.0699 l -0.17145,-0.46831 H 6.1471179 l -0.17145,0.46831 q -0.0127,0.0365 -0.0508,0.0667 -0.036512,0.0302 -0.090488,0.0302 h -0.331787 l 0.9016999,-2.29553 h 0.4365625 z m -1.4858999,-0.86678 h 0.7318374 l -0.2794,-0.76358 q -0.01905,-0.0508 -0.042863,-0.11907 -0.022225,-0.0699 -0.04445,-0.15081 -0.022225,0.081 -0.04445,0.15081 -0.020637,0.0699 -0.041275,0.12224 z m 1.8139799,-1.42875 q 0.028575,0 0.047625,0.003 0.01905,0.002 0.033338,0.01 0.015875,0.006 0.030163,0.0206 0.014288,0.0127 0.03175,0.0349 l 1.2049125,1.53511 q -0.00635,-0.0556 -0.00953,-0.10795 -0.00159,-0.054 -0.00159,-0.10001 v -1.39542 h 0.3762374 v 2.29553 H 9.5628853 q -0.0508,0 -0.084137,-0.0159 -0.033338,-0.0159 -0.065088,-0.0572 l -1.20015,-1.52876 q 0.00476,0.0508 0.00635,0.1016 0.00317,0.0492 0.00317,0.0905 v 1.4097 H 7.8467978 v -2.29553 h 0.2238375 z m 4.0618847,2.29553 h -0.3302 q -0.05556,0 -0.09207,-0.027 -0.03493,-0.0286 -0.0508,-0.0699 L 11.488,178.76191 h -0.950913 l -0.17145,0.46831 q -0.0127,0.0365 -0.0508,0.0667 -0.03651,0.0302 -0.09049,0.0302 H 9.8925574 l 0.9016996,-2.29553 h 0.436563 z m -1.4859,-0.86678 h 0.731837 l -0.2794,-0.76358 q -0.01905,-0.0508 -0.04286,-0.11907 -0.02223,-0.0699 -0.04445,-0.15081 -0.02222,0.081 -0.04445,0.15081 -0.02064,0.0699 -0.04128,0.12224 z m 2.01718,0.51435 h 0.919162 v 0.35243 h -1.3462 v -2.29553 H 12.6638 Z m 3.157006,-0.79533 q 0,0.25241 -0.08414,0.46831 -0.08414,0.21431 -0.236537,0.37147 -0.1524,0.15717 -0.366713,0.24607 -0.214312,0.0873 -0.474662,0.0873 -0.26035,0 -0.47625,-0.0873 -0.214313,-0.0889 -0.3683,-0.24607 -0.1524,-0.15716 -0.236538,-0.37147 -0.08414,-0.2159 -0.08414,-0.46831 0,-0.25242 0.08414,-0.46673 0.08414,-0.2159 0.236538,-0.37306 0.153987,-0.15716 0.3683,-0.24448 0.2159,-0.0889 0.47625,-0.0889 0.26035,0 0.474662,0.0889 0.214313,0.0889 0.366713,0.24607 0.1524,0.15557 0.236537,0.37147 0.08414,0.21431 0.08414,0.46673 z m -0.43815,0 q 0,-0.18892 -0.0508,-0.33814 -0.04921,-0.15081 -0.142875,-0.25559 -0.09366,-0.10477 -0.2286,-0.16034 -0.13335,-0.0556 -0.301625,-0.0556 -0.168275,0 -0.303213,0.0556 -0.134937,0.0556 -0.230187,0.16034 -0.09366,0.10478 -0.144463,0.25559 -0.0508,0.14922 -0.0508,0.33814 0,0.18891 0.0508,0.33972 0.0508,0.14923 0.144463,0.254 0.09525,0.10319 0.230187,0.15875 0.134938,0.0556 0.303213,0.0556 0.168275,0 0.301625,-0.0556 0.134937,-0.0556 0.2286,-0.15875 0.09366,-0.10477 0.142875,-0.254 0.0508,-0.15081 0.0508,-0.33972 z m 1.696506,0.83343 q 0.144463,0 0.250825,-0.0254 0.10795,-0.027 0.204788,-0.073 v -0.41751 h -0.287338 q -0.04128,0 -0.06509,-0.0222 -0.02381,-0.0238 -0.02381,-0.0571 v -0.2413 h 0.763588 v 0.92869 q -0.08731,0.0635 -0.182563,0.11112 -0.09366,0.046 -0.201612,0.0762 -0.106363,0.0302 -0.2286,0.0444 -0.122238,0.0159 -0.263525,0.0159 -0.250825,0 -0.461963,-0.0873 -0.211137,-0.0873 -0.365125,-0.24289 -0.153987,-0.15558 -0.2413,-0.37148 -0.08573,-0.2159 -0.08573,-0.47148 0,-0.25877 0.08414,-0.47467 0.08414,-0.2159 0.238125,-0.37147 0.155575,-0.15558 0.376237,-0.2413 0.220663,-0.0857 0.4953,-0.0857 0.280988,0 0.485775,0.0841 0.206375,0.0825 0.34925,0.2159 l -0.123825,0.19368 q -0.03651,0.0587 -0.09684,0.0587 -0.0381,0 -0.07779,-0.0254 -0.0508,-0.0302 -0.104775,-0.0603 -0.05239,-0.0302 -0.117475,-0.0524 -0.0635,-0.0222 -0.144462,-0.0365 -0.07938,-0.0143 -0.18415,-0.0143 -0.169863,0 -0.307975,0.0572 -0.136525,0.0571 -0.233363,0.16351 -0.09684,0.10637 -0.149225,0.25559 -0.05239,0.14923 -0.05239,0.33338 0,0.19843 0.05556,0.35401 0.05556,0.15399 0.155575,0.26035 0.100013,0.10636 0.238125,0.16351 0.138113,0.0556 0.301625,0.0556 z"
         id="text55"
         style="font-weight:bold;font-size:3.175px;line-height:0.95;font-family:Lato;-inkscape-font-specification:'Lato, Bold';text-align:center;letter-spacing:-0.132292px;text-anchor:middle;fill:#dadada;stroke-width:0.264583"
         inkscape:label="probabilistic"
         aria-label="ANALOG" />
      <path
         d="m 19.887196,177.44874 q -0.01746,0.0349 -0.04127,0.0492 -0.02222,0.0143 -0.05398,0.0143 -0.03175,0 -0.07144,-0.0238 -0.03969,-0.0254 -0.09366,-0.0556 -0.05398,-0.0302 -0.127,-0.054 -0.07144,-0.0254 -0.169863,-0.0254 -0.0889,0 -0.155575,0.0222 -0.06509,0.0206 -0.111125,0.0587 -0.04445,0.0381 -0.06668,0.0921 -0.02222,0.0524 -0.02222,0.11588 0,0.081 0.04445,0.13494 0.04604,0.054 0.12065,0.0921 0.07461,0.0381 0.169863,0.0683 0.09525,0.0302 0.193675,0.0651 0.100012,0.0333 0.195262,0.0794 0.09525,0.0444 0.169863,0.1143 0.07461,0.0683 0.119062,0.16828 0.04604,0.10001 0.04604,0.24288 0,0.15558 -0.05397,0.2921 -0.05239,0.13494 -0.155575,0.23654 -0.1016,0.10001 -0.249238,0.15875 -0.147637,0.0572 -0.338137,0.0572 -0.109538,0 -0.2159,-0.0222 -0.106363,-0.0206 -0.204788,-0.0603 -0.09684,-0.0397 -0.182562,-0.0952 -0.08414,-0.0556 -0.150813,-0.12382 l 0.123825,-0.20479 q 0.01746,-0.0222 0.04127,-0.0365 0.0254,-0.0159 0.05556,-0.0159 0.03969,0 0.08573,0.0333 0.04604,0.0317 0.10795,0.0714 0.0635,0.0397 0.147637,0.073 0.08573,0.0318 0.204788,0.0318 0.182562,0 0.282575,-0.0857 0.100012,-0.0873 0.100012,-0.24924 0,-0.0905 -0.04604,-0.14764 -0.04445,-0.0571 -0.119063,-0.0952 -0.07461,-0.0397 -0.169862,-0.0667 -0.09525,-0.027 -0.193675,-0.0587 -0.09842,-0.0318 -0.193675,-0.0762 -0.09525,-0.0445 -0.169863,-0.11589 -0.07461,-0.0714 -0.12065,-0.1778 -0.04445,-0.10795 -0.04445,-0.26511 0,-0.12541 0.04921,-0.24448 0.0508,-0.11906 0.14605,-0.21113 0.09684,-0.0921 0.236537,-0.14764 0.1397,-0.0556 0.319088,-0.0556 0.2032,0 0.37465,0.0635 0.17145,0.0635 0.2921,0.1778 z m 0.12806,-0.41751 h 0.358775 q 0.05556,0 0.09208,0.027 0.0381,0.0254 0.0508,0.0699 l 0.390525,1.37319 q 0.01429,0.0508 0.0254,0.11113 0.0127,0.0587 0.02381,0.12541 0.0127,-0.0667 0.02699,-0.12541 0.01588,-0.0603 0.03334,-0.11113 l 0.45085,-1.37319 q 0.0127,-0.0365 0.04921,-0.0667 0.0381,-0.0302 0.09208,-0.0302 h 0.125413 q 0.05556,0 0.09208,0.027 0.03651,0.0254 0.0508,0.0699 l 0.447675,1.37319 q 0.03493,0.1016 0.06033,0.22543 0.01111,-0.0619 0.02222,-0.11907 0.0127,-0.0572 0.0254,-0.10636 l 0.390525,-1.37319 q 0.01111,-0.0397 0.04921,-0.0683 0.0381,-0.0286 0.09208,-0.0286 h 0.334963 l -0.712788,2.29552 h -0.385762 l -0.50165,-1.56845 q -0.0095,-0.0302 -0.02064,-0.0651 -0.0095,-0.0349 -0.01905,-0.0746 -0.0095,0.0397 -0.02064,0.0746 -0.0095,0.0349 -0.01905,0.0651 l -0.506413,1.56845 h -0.385762 z m 3.884081,2.29552 h -0.428625 v -2.29552 h 0.428625 z m 2.023531,-2.29552 v 0.15716 q 0,0.073 -0.04128,0.13335 l -1.177925,1.6637 h 1.190625 v 0.34131 H 24.14963 v -0.16827 q 0,-0.0317 0.01111,-0.0603 0.01111,-0.0302 0.02858,-0.0556 l 1.1811,-1.67164 h -1.146175 v -0.33972 z m 1.826684,0 v 0.15716 q 0,0.073 -0.04128,0.13335 l -1.177925,1.6637 h 1.190625 v 0.34131 H 25.97631 v -0.16827 q 0,-0.0317 0.01111,-0.0603 0.01111,-0.0302 0.02858,-0.0556 l 1.1811,-1.67164 h -1.146175 v -0.33972 z m 0.613835,1.9431 h 0.919163 v 0.35242 h -1.3462 v -2.29552 h 0.427037 z m 1.563159,0.35242 h -0.428625 v -2.29552 h 0.428625 z m 0.607481,-2.29552 q 0.02858,0 0.04763,0.003 0.01905,0.002 0.03334,0.01 0.01587,0.006 0.03016,0.0206 0.01429,0.0127 0.03175,0.0349 l 1.204912,1.53511 q -0.0063,-0.0556 -0.0095,-0.10795 -0.0016,-0.054 -0.0016,-0.10001 v -1.39541 h 0.376237 v 2.29552 h -0.220662 q -0.0508,0 -0.08414,-0.0159 -0.03334,-0.0159 -0.06509,-0.0572 l -1.20015,-1.52877 q 0.0048,0.0508 0.0064,0.1016 0.0032,0.0492 0.0032,0.0905 v 1.4097 h -0.376238 v -2.29552 h 0.223838 z m 3.098271,1.9812 q 0.144463,0 0.250825,-0.0254 0.10795,-0.027 0.204788,-0.073 v -0.41751 h -0.287338 q -0.04127,0 -0.06509,-0.0222 -0.02381,-0.0238 -0.02381,-0.0571 v -0.2413 h 0.763588 v 0.92869 q -0.08731,0.0635 -0.182563,0.11113 -0.09366,0.046 -0.201612,0.0762 -0.106363,0.0302 -0.2286,0.0444 -0.122238,0.0159 -0.263525,0.0159 -0.250825,0 -0.461963,-0.0873 -0.211137,-0.0873 -0.365125,-0.24289 -0.153987,-0.15557 -0.2413,-0.37147 -0.08572,-0.2159 -0.08572,-0.47149 0,-0.25876 0.08414,-0.47466 0.08414,-0.2159 0.238125,-0.37148 0.155575,-0.15557 0.376237,-0.2413 0.220663,-0.0857 0.4953,-0.0857 0.280988,0 0.485775,0.0841 0.206375,0.0825 0.34925,0.2159 l -0.123825,0.19368 q -0.03651,0.0587 -0.09684,0.0587 -0.0381,0 -0.07779,-0.0254 -0.0508,-0.0302 -0.104775,-0.0603 -0.05239,-0.0302 -0.117475,-0.0524 -0.0635,-0.0222 -0.144462,-0.0365 -0.07938,-0.0143 -0.18415,-0.0143 -0.169863,0 -0.307975,0.0572 -0.136525,0.0571 -0.233363,0.16352 -0.09684,0.10636 -0.149225,0.25558 -0.05239,0.14923 -0.05239,0.33338 0,0.19844 0.05556,0.35401 0.05556,0.15399 0.155575,0.26035 0.100013,0.10636 0.238125,0.16351 0.138113,0.0556 0.301625,0.0556 z"
         id="text56"
         style="font-weight:bold;font-size:3.175px;line-height:0.95;font-family:Lato;-inkscape-font-specification:'Lato, Bold';text-align:center;letter-spacing:-0.132292px;text-anchor:middle;fill:#a68af9;stroke-width:0.264583"
         inkscape:label="ramp"
         aria-label="SWIZZLING" />
      <path
         d="m 9.7786911,288.3496 v 0.77311 h -0.536575 v -2.31299 h 0.8159749 q 0.244475,0 0.4191,0.0587 0.176213,0.0571 0.288925,0.15875 0.1143,0.1016 0.168275,0.23971 0.05397,0.13812 0.05397,0.29845 0,0.17304 -0.05556,0.3175 -0.05556,0.14447 -0.169863,0.24765 -0.1143,0.10319 -0.290512,0.16193 -0.174625,0.0572 -0.414338,0.0572 z m 0,-0.40481 h 0.2793999 q 0.20955,0 0.301625,-0.10002 0.09207,-0.10001 0.09207,-0.2794 0,-0.0794 -0.02381,-0.14446 -0.02381,-0.0651 -0.07303,-0.11112 -0.04763,-0.0476 -0.122238,-0.073 -0.07302,-0.0254 -0.174625,-0.0254 H 9.7786911 Z m 3.3760849,1.17792 h -0.53975 v -0.9779 h -0.9398 v 0.9779 h -0.53975 v -2.31299 h 0.53975 v 0.96679 h 0.9398 v -0.96679 h 0.53975 z m 2.401359,0 H 15.14021 q -0.06985,0 -0.115887,-0.0317 -0.04445,-0.0333 -0.06191,-0.0841 L 14.825885,288.6036 H 13.94641 l -0.136525,0.40322 q -0.01587,0.0444 -0.06191,0.081 -0.04604,0.0349 -0.112713,0.0349 h -0.4191 l 0.89535,-2.31299 h 0.549275 z m -1.4859,-0.88424 h 0.631825 l -0.212725,-0.63341 q -0.02064,-0.0603 -0.04921,-0.14129 -0.02699,-0.0826 -0.05397,-0.1778 -0.0254,0.0968 -0.05239,0.17939 -0.02699,0.0826 -0.0508,0.14288 z m 2.829982,-0.95885 q -0.02381,0.0381 -0.0508,0.0571 -0.0254,0.019 -0.06668,0.019 -0.03651,0 -0.07937,-0.0222 -0.04127,-0.0238 -0.09525,-0.0524 -0.05239,-0.0286 -0.12065,-0.0508 -0.06826,-0.0238 -0.155575,-0.0238 -0.150813,0 -0.225425,0.0651 -0.07302,0.0635 -0.07302,0.17303 0,0.0698 0.04445,0.11589 0.04445,0.046 0.115887,0.0794 0.07303,0.0333 0.1651,0.0619 0.09366,0.027 0.1905,0.0619 0.09684,0.0333 0.188913,0.0794 0.09366,0.046 0.1651,0.11747 0.07303,0.0714 0.117475,0.17463 0.04445,0.1016 0.04445,0.24606 0,0.16034 -0.05556,0.30004 -0.05556,0.1397 -0.161925,0.24447 -0.104775,0.10319 -0.26035,0.16351 -0.153987,0.0587 -0.350837,0.0587 -0.10795,0 -0.220663,-0.0222 -0.111125,-0.0222 -0.2159,-0.0619 -0.104775,-0.0413 -0.19685,-0.0968 -0.09208,-0.0556 -0.160337,-0.12383 l 0.15875,-0.25082 q 0.01746,-0.0286 0.04921,-0.046 0.03175,-0.0175 0.06826,-0.0175 0.04763,0 0.09525,0.0302 0.04921,0.0302 0.109537,0.0667 0.06191,0.0365 0.141288,0.0667 0.07937,0.0302 0.187325,0.0302 0.14605,0 0.227012,-0.0635 0.08096,-0.0651 0.08096,-0.20479 0,-0.081 -0.04445,-0.13176 -0.04445,-0.0508 -0.117475,-0.0841 -0.07144,-0.0333 -0.163513,-0.0587 -0.09208,-0.0254 -0.188912,-0.0556 -0.09684,-0.0317 -0.188913,-0.0762 -0.09207,-0.046 -0.1651,-0.11906 -0.07144,-0.0746 -0.115887,-0.18415 -0.04445,-0.11112 -0.04445,-0.27305 0,-0.13017 0.05239,-0.254 0.05239,-0.12382 0.153988,-0.22066 0.1016,-0.0968 0.249237,-0.15399 0.147638,-0.0587 0.338138,-0.0587 0.106362,0 0.206375,0.0175 0.1016,0.0159 0.192087,0.0492 0.09049,0.0317 0.168275,0.0778 0.07938,0.0444 0.141288,0.1016 z m 2.582332,0.6858 q 0,0.25083 -0.08731,0.46673 -0.08573,0.2159 -0.242888,0.37624 -0.157162,0.15875 -0.379412,0.24923 -0.220663,0.0905 -0.490538,0.0905 -0.269875,0 -0.492125,-0.0905 -0.22225,-0.0905 -0.381,-0.24923 -0.157162,-0.16034 -0.244475,-0.37624 -0.08573,-0.2159 -0.08573,-0.46673 0,-0.25082 0.08573,-0.46672 0.08731,-0.2159 0.244475,-0.37465 0.15875,-0.15875 0.381,-0.24924 0.22225,-0.0905 0.492125,-0.0905 0.269875,0 0.490538,0.0921 0.22225,0.0905 0.379412,0.24924 0.157163,0.15875 0.242888,0.37465 0.08731,0.2159 0.08731,0.46513 z m -0.549275,0 q 0,-0.17145 -0.04445,-0.30797 -0.04445,-0.13811 -0.128587,-0.23336 -0.08255,-0.0952 -0.2032,-0.14605 -0.12065,-0.0508 -0.274638,-0.0508 -0.155575,0 -0.277812,0.0508 -0.12065,0.0508 -0.204788,0.14605 -0.08255,0.0953 -0.127,0.23336 -0.04445,0.13652 -0.04445,0.30797 0,0.17304 0.04445,0.31115 0.04445,0.13653 0.127,0.23178 0.08414,0.0952 0.204788,0.14605 0.122237,0.0492 0.277812,0.0492 0.153988,0 0.274638,-0.0492 0.12065,-0.0508 0.2032,-0.14605 0.08414,-0.0953 0.128587,-0.23178 0.04445,-0.13811 0.04445,-0.31115 z m 1.210731,0.30163 v 0.85566 H 19.60743 v -2.31299 h 0.752475 q 0.250825,0 0.427037,0.0524 0.1778,0.0508 0.288925,0.14288 0.112713,0.0921 0.163513,0.21748 0.0508,0.12542 0.0508,0.27305 0,0.11272 -0.03016,0.21273 -0.03016,0.10001 -0.09049,0.18574 -0.05874,0.0841 -0.14605,0.15081 -0.08573,0.0667 -0.198438,0.10954 0.05398,0.027 0.100013,0.0667 0.04763,0.0397 0.08255,0.0968 l 0.492125,0.80486 h -0.485775 q -0.134938,0 -0.193675,-0.1016 l -0.384175,-0.67151 q -0.0254,-0.0444 -0.06033,-0.0635 -0.03334,-0.019 -0.09525,-0.019 z m 0,-0.36989 h 0.2159 q 0.109537,0 0.185737,-0.027 0.07779,-0.0286 0.127,-0.0778 0.04921,-0.0492 0.07144,-0.1143 0.02222,-0.0667 0.02222,-0.14288 0,-0.1524 -0.100013,-0.23812 -0.09842,-0.0857 -0.306387,-0.0857 h -0.2159 z"
         id="text57"
         style="font-weight:900;font-size:3.175px;line-height:0.95;font-family:Lato;-inkscape-font-specification:'Lato, Heavy';text-align:center;letter-spacing:-0.132292px;text-anchor:middle;fill:#a68af9;stroke-width:0.264583"
         inkscape:label="phasor"
         aria-label="PHASOR " />
      <path
         d="m 23.359452,287.26281 q -0.02381,0.0381 -0.0508,0.0571 -0.0254,0.019 -0.06668,0.019 -0.03651,0 -0.07937,-0.0222 -0.04127,-0.0238 -0.09525,-0.0524 -0.05239,-0.0286 -0.12065,-0.0508 -0.06826,-0.0238 -0.155575,-0.0238 -0.150812,0 -0.225425,0.0651 -0.07303,0.0635 -0.07303,0.17304 0,0.0699 0.04445,0.11589 0.04445,0.046 0.115888,0.0794 0.07303,0.0333 0.1651,0.0619 0.09366,0.027 0.1905,0.0619 0.09684,0.0333 0.188912,0.0794 0.09366,0.046 0.1651,0.11748 0.07303,0.0714 0.117475,0.17462 0.04445,0.1016 0.04445,0.24606 0,0.16034 -0.05556,0.30004 -0.05556,0.1397 -0.161925,0.24448 -0.104775,0.10318 -0.26035,0.16351 -0.153988,0.0587 -0.350838,0.0587 -0.10795,0 -0.220662,-0.0222 -0.111125,-0.0222 -0.2159,-0.0619 -0.104775,-0.0413 -0.19685,-0.0968 -0.09208,-0.0556 -0.160338,-0.12382 l 0.15875,-0.25083 q 0.01746,-0.0286 0.04921,-0.046 0.03175,-0.0175 0.06826,-0.0175 0.04763,0 0.09525,0.0302 0.04921,0.0302 0.109538,0.0667 0.06191,0.0365 0.141287,0.0667 0.07938,0.0302 0.187325,0.0302 0.14605,0 0.227013,-0.0635 0.08096,-0.0651 0.08096,-0.20479 0,-0.081 -0.04445,-0.13176 -0.04445,-0.0508 -0.117475,-0.0841 -0.07144,-0.0333 -0.163512,-0.0587 -0.09207,-0.0254 -0.188913,-0.0556 -0.09684,-0.0318 -0.188912,-0.0762 -0.09208,-0.046 -0.1651,-0.11906 -0.07144,-0.0746 -0.115888,-0.18415 -0.04445,-0.11113 -0.04445,-0.27305 0,-0.13018 0.05239,-0.254 0.05239,-0.12383 0.153987,-0.22067 0.1016,-0.0968 0.249238,-0.15398 0.147637,-0.0587 0.338137,-0.0587 0.106363,0 0.206375,0.0175 0.1016,0.0159 0.192088,0.0492 0.09049,0.0317 0.168275,0.0778 0.07938,0.0444 0.141287,0.1016 z m 0.836083,1.06997 v 0.77312 H 23.65896 v -2.31299 h 0.815975 q 0.244475,0 0.4191,0.0587 0.176212,0.0571 0.288924,0.15875 0.1143,0.1016 0.168275,0.23971 0.05397,0.13811 0.05397,0.29845 0,0.17304 -0.05556,0.3175 -0.05556,0.14446 -0.169863,0.24765 -0.1143,0.10319 -0.290512,0.16192 -0.174625,0.0572 -0.414337,0.0572 z m 0,-0.40481 h 0.2794 q 0.20955,0 0.301625,-0.10001 0.09208,-0.10001 0.09208,-0.2794 0,-0.0794 -0.02381,-0.14446 -0.02381,-0.0651 -0.07303,-0.11113 -0.04763,-0.0476 -0.122237,-0.073 -0.07303,-0.0254 -0.174625,-0.0254 h -0.2794 z m 3.239562,1.17793 h -0.415925 q -0.06985,0 -0.115888,-0.0318 -0.04445,-0.0333 -0.06191,-0.0841 l -0.136525,-0.40323 H 25.825374 L 25.688849,288.99 q -0.01587,0.0445 -0.06191,0.081 -0.04604,0.0349 -0.112712,0.0349 h -0.4191 l 0.89535,-2.31299 h 0.549275 z m -1.4859,-0.88424 h 0.631825 l -0.212725,-0.63341 q -0.02064,-0.0603 -0.04921,-0.14129 -0.02699,-0.0825 -0.05398,-0.1778 -0.0254,0.0968 -0.05239,0.17939 -0.02699,0.0825 -0.0508,0.14287 z m 2.999841,0.28575 q 0.01905,0 0.0381,0.008 0.01905,0.006 0.03651,0.0238 l 0.212725,0.22384 q -0.1397,0.18256 -0.350838,0.27622 -0.20955,0.0921 -0.496887,0.0921 -0.263525,0 -0.473075,-0.0889 -0.207962,-0.0905 -0.354012,-0.24765 -0.144463,-0.15875 -0.22225,-0.37465 -0.07779,-0.21749 -0.07779,-0.47149 0,-0.25876 0.0889,-0.47466 0.0889,-0.21749 0.24765,-0.37465 0.160338,-0.15717 0.382588,-0.24448 0.22225,-0.0873 0.490537,-0.0873 0.130175,0 0.244475,0.0238 0.115887,0.0222 0.2159,0.0635 0.100012,0.0397 0.18415,0.0968 0.08414,0.0556 0.149225,0.12382 l -0.180975,0.24289 q -0.01746,0.0222 -0.04127,0.0413 -0.02381,0.0175 -0.06668,0.0175 -0.02858,0 -0.05398,-0.0127 -0.0254,-0.0127 -0.05398,-0.0302 -0.02858,-0.019 -0.0635,-0.0397 -0.03334,-0.0222 -0.08096,-0.0397 -0.04604,-0.019 -0.109537,-0.0317 -0.06191,-0.0127 -0.14605,-0.0127 -0.14605,0 -0.2667,0.0524 -0.12065,0.0508 -0.207962,0.14764 -0.08573,0.0952 -0.134938,0.23177 -0.04763,0.13653 -0.04763,0.30639 0,0.1778 0.04763,0.31591 0.04921,0.13811 0.131763,0.23336 0.08414,0.0937 0.195262,0.14288 0.111125,0.0492 0.238125,0.0492 0.07302,0 0.13335,-0.006 0.06032,-0.008 0.111125,-0.0254 0.05239,-0.0175 0.09843,-0.0444 0.04763,-0.0286 0.09525,-0.0698 0.01905,-0.0159 0.04127,-0.0254 0.02222,-0.0111 0.04604,-0.0111 z m 1.888595,-1.7145 v 0.41275 h -0.949325 v 0.53975 h 0.727075 v 0.39687 h -0.727075 v 0.55087 h 0.949325 v 0.41275 h -1.489075 v -2.31299 z"
         id="text58"
         style="font-weight:900;font-size:3.175px;line-height:0.95;font-family:Lato;-inkscape-font-specification:'Lato, Heavy';text-align:center;letter-spacing:-0.132292px;text-anchor:middle;fill:#dadada;stroke-width:0.264583"
         inkscape:label="space"
         aria-label="SPACE" />
      <path
         d="m 3.6769324,232.12157 v 0.25082 H 2.5847325 v 0.79534 h 0.9334499 v 0.25083 H 2.5847325 v 0.9779 H 2.27517 v -2.27489 z m 0.6011329,1.32556 v 0.94933 H 3.9716778 v -2.27489 h 0.6429375 q 0.2159,0 0.3730625,0.0445 0.1571625,0.0429 0.2587625,0.12541 0.1031875,0.0825 0.1524,0.20003 0.049212,0.11588 0.049212,0.26035 0,0.12065 -0.0381,0.22542 -0.0381,0.10478 -0.111125,0.18891 -0.071438,0.0825 -0.1762125,0.14129 -0.1031875,0.0587 -0.23495,0.0889 0.05715,0.0333 0.1016,0.0968 l 0.663575,0.90329 h -0.27305 q -0.084138,0 -0.123825,-0.0651 l -0.59055,-0.8128 q -0.026987,-0.0381 -0.058737,-0.054 -0.03175,-0.0175 -0.09525,-0.0175 z m 0,-0.22384 h 0.3222625 q 0.1349375,0 0.2365375,-0.0317 0.1031875,-0.0333 0.17145,-0.0921 0.06985,-0.0603 0.104775,-0.14287 0.034925,-0.0825 0.034925,-0.18256 0,-0.2032 -0.1349375,-0.30639 -0.13335,-0.10319 -0.3984625,-0.10319 h -0.33655 z m 2.9760301,-1.10172 v 0.25082 h -1.0922 v 0.75565 h 0.8842375 v 0.2413 H 6.1618954 v 0.77629 h 1.0922 v 0.25083 H 5.8523329 v -2.27489 z m 2.4235811,1.13824 q 0,0.16033 -0.033338,0.3048 -0.03175,0.14446 -0.093663,0.26987 -0.061913,0.12383 -0.1508125,0.22543 -0.0889,0.1016 -0.200025,0.17621 l 0.5842,0.63024 h -0.254 q -0.05715,0 -0.1016,-0.0159 -0.04445,-0.0159 -0.080963,-0.0556 l -0.4000484,-0.43499 q -0.090487,0.0286 -0.1889125,0.0445 -0.096837,0.0159 -0.2032,0.0159 -0.250825,0 -0.4572,-0.0841 -0.206375,-0.0857 -0.3540125,-0.23971 -0.1476375,-0.15399 -0.2286,-0.36671 -0.080963,-0.21431 -0.080963,-0.4699 0,-0.25559 0.080963,-0.46831 0.080963,-0.21432 0.2286,-0.3683 0.1476375,-0.15558 0.3540125,-0.2413 0.206375,-0.0857 0.4572,-0.0857 0.250825,0 0.4571999,0.0857 0.2079625,0.0857 0.3556,0.2413 0.1476375,0.15398 0.2286,0.3683 0.080963,0.21272 0.080963,0.46831 z m -0.3159125,0 q 0,-0.20955 -0.05715,-0.37624 -0.05715,-0.16669 -0.161925,-0.28099 -0.104775,-0.11589 -0.2539999,-0.1778 -0.149225,-0.0619 -0.333375,-0.0619 -0.1825625,0 -0.3317875,0.0619 -0.149225,0.0619 -0.2555875,0.1778 -0.104775,0.1143 -0.161925,0.28099 -0.05715,0.16669 -0.05715,0.37624 0,0.20955 0.05715,0.37623 0.05715,0.1651 0.161925,0.28099 0.1063625,0.1143 0.2555875,0.17621 0.149225,0.0603 0.3317875,0.0603 0.18415,0 0.333375,-0.0603 0.1492249,-0.0619 0.2539999,-0.17621 0.104775,-0.11589 0.161925,-0.28099 0.05715,-0.16668 0.05715,-0.37623 z"
         id="text59"
         style="font-size:3.175px;line-height:0.95;font-family:Lato;-inkscape-font-specification:'Lato, Normal';text-align:center;letter-spacing:-0.132292px;text-anchor:middle;fill:#dadada;stroke-width:0.264583"
         inkscape:label="1voct"
         aria-label="FREQ" />
      <path
         d="M 2.063294,252.38745 H 1.755319 v -2.27488 h 0.307975 z m 0.6360555,-2.27488 q 0.041275,0 0.060325,0.0111 0.020637,0.01 0.046037,0.0413 l 1.317625,1.7145 q -0.00476,-0.0413 -0.00635,-0.0794 -0.00159,-0.0397 -0.00159,-0.0762 v -1.61132 h 0.269875 v 2.27489 h -0.155575 q -0.036513,0 -0.061913,-0.0127 -0.023813,-0.0127 -0.047625,-0.0429 l -1.316034,-1.71291 q 0.00318,0.0397 0.00476,0.0778 0.00159,0.0381 0.00159,0.0699 v 1.62084 h -0.269875 v -2.27489 h 0.15875 z m 2.4473973,1.42398 v 0.8509 H 4.8403593 v -2.27488 h 0.6715125 q 0.2158999,0 0.3746499,0.0508 0.1603375,0.0492 0.2651125,0.14128 0.104775,0.0921 0.155575,0.22225 0.052387,0.13018 0.052387,0.29052 0,0.15875 -0.055562,0.29051 -0.055562,0.13176 -0.1635125,0.22701 -0.1063625,0.0953 -0.2651125,0.14923 -0.15875,0.0524 -0.3635374,0.0524 z m 0,-0.24447 h 0.365125 q 0.1317625,0 0.2317749,-0.0349 0.1016,-0.0349 0.1698625,-0.0968 0.068263,-0.0635 0.1031875,-0.15081 0.034925,-0.0873 0.034925,-0.19209 0,-0.21749 -0.1349375,-0.33973 -0.13335,-0.12223 -0.4048124,-0.12223 h -0.365125 z m 2.3537329,0.8509 q 0.1412875,0 0.2524125,-0.0476 0.111125,-0.0476 0.187325,-0.13335 0.077788,-0.0857 0.117475,-0.20479 0.041275,-0.11906 0.041275,-0.26194 v -1.38271 h 0.3063875 v 1.38271 q 0,0.19685 -0.0635,0.36513 -0.061913,0.16827 -0.1793875,0.2921 -0.1158875,0.12224 -0.2841625,0.19209 -0.168275,0.0698 -0.377825,0.0698 -0.20955,0 -0.377825,-0.0698 -0.168275,-0.0699 -0.28575,-0.19209 -0.117475,-0.12383 -0.180975,-0.2921 -0.061913,-0.16828 -0.061913,-0.36513 v -1.38271 h 0.3063875 v 1.38113 q 0,0.14287 0.039688,0.26193 0.041275,0.11907 0.117475,0.20479 0.077788,0.0857 0.1889125,0.13494 0.1127125,0.0476 0.254,0.0476 z m 2.8506193,-2.03041 v 0.25876 H 9.6160864 v 2.01612 h -0.307975 v -2.01612 H 8.5699239 v -0.25876 z"
         id="text60"
         style="font-size:3.175px;line-height:0.95;font-family:Lato;-inkscape-font-specification:'Lato, Normal';text-align:center;letter-spacing:-0.132292px;text-anchor:middle;fill:#dadada;stroke-width:0.264583"
         inkscape:label="1voct"
         aria-label="INPUT" />
      <path
         d="m 2.7792588,269.90956 q 0.0254,0 0.046037,0.0206 l 0.12065,0.13176 q -0.1397,0.16192 -0.339725,0.25241 -0.1984375,0.0905 -0.479425,0.0905 -0.2460626,0 -0.4460875,-0.0841 -0.2000251,-0.0857 -0.3413126,-0.23812 -0.1412875,-0.15399 -0.219075,-0.3683 -0.077787,-0.21433 -0.077787,-0.4715 0,-0.25718 0.08255,-0.47149 0.084137,-0.21431 0.23495,-0.3683 0.1508125,-0.15399 0.3603626,-0.23812 0.2111374,-0.0857 0.4651375,-0.0857 0.250825,0 0.4318,0.0778 0.1825625,0.0778 0.32385,0.21113 l -0.1000125,0.14129 q -0.011113,0.0159 -0.0254,0.027 -0.014288,0.01 -0.041275,0.01 -0.020638,0 -0.04445,-0.0143 -0.022225,-0.0159 -0.053975,-0.0381 -0.03175,-0.0222 -0.074612,-0.0476 -0.042863,-0.0254 -0.1016,-0.0476 -0.058737,-0.0222 -0.136525,-0.0365 -0.077787,-0.0159 -0.1793875,-0.0159 -0.1825626,0 -0.3349626,0.0635 -0.1508124,0.0619 -0.2603499,0.1778 -0.1095376,0.11589 -0.1714501,0.28258 -0.060325,0.16668 -0.060325,0.37306 0,0.21272 0.060325,0.37941 0.061913,0.16669 0.1666876,0.28258 0.1063625,0.1143 0.2508249,0.17462 0.1444625,0.0603 0.3111501,0.0603 0.1016,0 0.1825625,-0.0111 0.080962,-0.0127 0.149225,-0.0381 0.06985,-0.0254 0.1285875,-0.0635 0.060325,-0.0397 0.12065,-0.0937 0.026987,-0.0238 0.052388,-0.0238 z m 0.7471813,0.21114 h 0.98425 v 0.25876 h -1.292225 v -2.27489 h 0.307975 z m 3.1776424,-0.87789 q 0,0.25559 -0.080963,0.4699 -0.080963,0.21272 -0.2286,0.36671 -0.1476375,0.15399 -0.3556,0.23971 -0.206375,0.0841 -0.4572,0.0841 -0.250825,0 -0.4572,-0.0841 -0.206375,-0.0857 -0.3540125,-0.23971 -0.1476375,-0.15399 -0.2286,-0.36671 -0.080962,-0.21431 -0.080962,-0.4699 0,-0.25559 0.080962,-0.46831 0.080963,-0.21432 0.2286,-0.3683 0.1476375,-0.15558 0.3540125,-0.2413 0.206375,-0.0857 0.4572,-0.0857 0.250825,0 0.4572,0.0857 0.2079625,0.0857 0.3556,0.2413 0.1476375,0.15398 0.2286,0.3683 0.080963,0.21272 0.080963,0.46831 z m -0.3159125,0 q 0,-0.20955 -0.05715,-0.37624 -0.05715,-0.16669 -0.161925,-0.28099 -0.104775,-0.11588 -0.254,-0.1778 -0.149225,-0.0619 -0.333375,-0.0619 -0.1825625,0 -0.3317875,0.0619 -0.149225,0.0619 -0.2555875,0.1778 -0.104775,0.1143 -0.161925,0.28099 -0.05715,0.16669 -0.05715,0.37624 0,0.20955 0.05715,0.37624 0.05715,0.1651 0.161925,0.28098 0.1063625,0.1143 0.2555875,0.17622 0.149225,0.0603 0.3317875,0.0603 0.18415,0 0.333375,-0.0603 0.149225,-0.0619 0.254,-0.17622 0.104775,-0.11588 0.161925,-0.28098 0.05715,-0.16669 0.05715,-0.37624 z m 2.2076838,0.66675 q 0.0254,0 0.046037,0.0206 l 0.12065,0.13176 q -0.1397,0.16192 -0.339725,0.25241 -0.1984374,0.0905 -0.4794249,0.0905 -0.2460625,0 -0.4460875,-0.0841 -0.200025,-0.0857 -0.3413125,-0.23812 -0.1412875,-0.15399 -0.219075,-0.3683 -0.077787,-0.21432 -0.077787,-0.47149 0,-0.25718 0.08255,-0.47149 0.084137,-0.21431 0.23495,-0.3683 0.1508125,-0.15399 0.3603625,-0.23812 0.2111375,-0.0857 0.4651375,-0.0857 0.250825,0 0.4317999,0.0778 0.1825625,0.0778 0.32385,0.21113 l -0.1000125,0.14128 q -0.011113,0.0159 -0.0254,0.027 -0.014288,0.01 -0.041275,0.01 -0.020638,0 -0.04445,-0.0143 -0.022225,-0.0159 -0.053975,-0.0381 -0.03175,-0.0222 -0.074613,-0.0476 -0.042862,-0.0254 -0.1015999,-0.0476 -0.058738,-0.0222 -0.136525,-0.0365 -0.077787,-0.0159 -0.1793875,-0.0159 -0.1825625,0 -0.3349625,0.0635 -0.1508125,0.0619 -0.26035,0.1778 -0.1095375,0.11589 -0.17145,0.28258 -0.060325,0.16668 -0.060325,0.37306 0,0.21272 0.060325,0.37941 0.061913,0.16669 0.1666875,0.28258 0.1063625,0.1143 0.250825,0.17462 0.1444625,0.0603 0.31115,0.0603 0.1016,0 0.1825625,-0.0111 0.080963,-0.0127 0.149225,-0.0381 0.06985,-0.0254 0.1285874,-0.0635 0.060325,-0.0397 0.12065,-0.0937 0.026987,-0.0238 0.052388,-0.0238 z m 0.7773441,-0.80804 h 0.1158875 q 0.060325,0 0.09525,-0.0143 0.036513,-0.0159 0.068262,-0.0524 l 0.7572376,-0.85722 q 0.03493,-0.0397 0.06668,-0.0556 0.03334,-0.0175 0.08414,-0.0175 h 0.261937 l -0.8667749,0.97949 q -0.033338,0.0365 -0.0635,0.0619 -0.028575,0.0254 -0.061913,0.0413 0.04445,0.0143 0.077787,0.0429 0.033338,0.0286 0.06985,0.0714 l 0.9048749,1.07791 h -0.2667 q -0.03016,0 -0.0508,-0.005 -0.02064,-0.005 -0.03651,-0.0127 -0.01429,-0.008 -0.02699,-0.0206 -0.0127,-0.0127 -0.0254,-0.027 L 9.6906979,269.411 q -0.017462,-0.0191 -0.033338,-0.0318 -0.014288,-0.0143 -0.034925,-0.0238 -0.01905,-0.01 -0.046038,-0.0127 -0.0254,-0.005 -0.0635,-0.005 h -0.1397 v 1.0414 H 9.0668104 v -2.27489 h 0.3063875 z"
         id="text61"
         style="font-size:3.175px;line-height:0.95;font-family:Lato;-inkscape-font-specification:'Lato, Normal';text-align:center;letter-spacing:-0.132292px;text-anchor:middle;fill:#dadada;stroke-width:0.264583"
         inkscape:label="1voct"
         aria-label="CLOCK" />
    </g>
  </g>
  <g
     inkscape:groupmode="layer"
     id="layer2"
     inkscape:label="components">
    <circle
       style="display:inline;vector-effect:none;fill:#0000ff;fill-opacity:1;fill-rule:evenodd;stroke:none;stroke-width:1;stroke-linecap:butt;stroke-linejoin:miter;stroke-miterlimit:4;stroke-dasharray:none;stroke-dashoffset:0;stroke-opacity:1;paint-order:normal"
       id="circle4958-9-3"
       cx="35.553436"
       cy="109.23666"
       r="4"
       inkscape:label="cv7" />
    <circle
       style="display:inline;vector-effect:none;fill:#0000ff;fill-opacity:1;fill-rule:evenodd;stroke:none;stroke-width:1;stroke-linecap:butt;stroke-linejoin:miter;stroke-miterlimit:4;stroke-dasharray:none;stroke-dashoffset:0;stroke-opacity:1;paint-order:normal"
       id="circle4958-9-3-5"
       cx="35.553436"
       cy="100.24085"
       r="4"
       inkscape:label="cv6" />
    <circle
       style="display:inline;vector-effect:none;fill:#0000ff;fill-opacity:1;fill-rule:evenodd;stroke:none;stroke-width:1;stroke-linecap:butt;stroke-linejoin:miter;stroke-miterlimit:4;stroke-dasharray:none;stroke-dashoffset:0;stroke-opacity:1;paint-order:normal"
       id="circle4958-9-3-5-2"
       cx="35.553436"
       cy="91.24501"
       r="4"
       inkscape:label="cv5" />
    <circle
       style="display:inline;vector-effect:none;fill:#0000ff;fill-opacity:1;fill-rule:evenodd;stroke:none;stroke-width:1;stroke-linecap:butt;stroke-linejoin:miter;stroke-miterlimit:4;stroke-dasharray:none;stroke-dashoffset:0;stroke-opacity:1;paint-order:normal"
       id="circle4958-9-3-5-2-9"
       cx="35.553436"
       cy="82.249168"
       r="4"
       inkscape:label="cv4" />
    <circle
       style="display:inline;vector-effect:none;fill:#0000ff;fill-opacity:1;fill-rule:evenodd;stroke:none;stroke-width:1;stroke-linecap:butt;stroke-linejoin:miter;stroke-miterlimit:4;stroke-dasharray:none;stroke-dashoffset:0;stroke-opacity:1;paint-order:normal"
       id="circle4958-9-3-5-2-9-0"
       cx="35.553436"
       cy="73.253326"
       r="4"
       inkscape:label="cv3" />
    <circle
       style="display:inline;vector-effect:none;fill:#0000ff;fill-opacity:1;fill-rule:evenodd;stroke:none;stroke-width:1;stroke-linecap:butt;stroke-linejoin:miter;stroke-miterlimit:4;stroke-dasharray:none;stroke-dashoffset:0;stroke-opacity:1;paint-order:normal"
       id="circle4958-9-3-5-2-9-0-0"
       cx="35.553436"
       cy="64.257484"
       r="4"
       inkscape:label="cv2" />
    <circle
       style="display:inline;vector-effect:none;fill:#0000ff;fill-opacity:1;fill-rule:evenodd;stroke:none;stroke-width:1;stroke-linecap:butt;stroke-linejoin:miter;stroke-miterlimit:4;stroke-dasharray:none;stroke-dashoffset:0;stroke-opacity:1;paint-order:normal"
       id="circle4958-9-3-5-2-9-0-0-9"
       cx="35.553436"
       cy="55.261642"
       r="4"
       inkscape:label="cv1" />
    <circle
       inkscape:label="blink7c"
       r="4"
       cy="109.23619"
       cx="28.127935"
       id="circle66-9-83-8-4-5-5-0"
       style="display:none;vector-effect:none;fill:#ff00ff;fill-opacity:1;fill-rule:evenodd;stroke:none;stroke-width:1;stroke-linecap:butt;stroke-linejoin:miter;stroke-miterlimit:4;stroke-dasharray:none;stroke-dashoffset:0;stroke-opacity:1;paint-order:normal" />
    <circle
       inkscape:label="blink7b"
       r="4"
       cy="109.23619"
       cx="24.250257"
       id="circle66-9-7-9-7-3-5-6-4"
       style="display:none;vector-effect:none;fill:#ff00ff;fill-opacity:1;fill-rule:evenodd;stroke:none;stroke-width:1;stroke-linecap:butt;stroke-linejoin:miter;stroke-miterlimit:4;stroke-dasharray:none;stroke-dashoffset:0;stroke-opacity:1;paint-order:normal" />
    <circle
       inkscape:label="blink7a"
       r="4"
       cy="109.23619"
       cx="20.289827"
       id="circle66-9-7-7-0-7-8-6-8-2"
       style="display:none;vector-effect:none;fill:#ff00ff;fill-opacity:1;fill-rule:evenodd;stroke:none;stroke-width:1;stroke-linecap:butt;stroke-linejoin:miter;stroke-miterlimit:4;stroke-dasharray:none;stroke-dashoffset:0;stroke-opacity:1;paint-order:normal" />
    <circle
       style="display:none;vector-effect:none;fill:#ff0000;fill-opacity:1;fill-rule:evenodd;stroke:none;stroke-width:1;stroke-linecap:butt;stroke-linejoin:miter;stroke-miterlimit:4;stroke-dasharray:none;stroke-dashoffset:0;stroke-opacity:1;paint-order:normal"
       id="path4954-3-5-4-4-3-5-3"
       cx="14.710834"
       cy="109.23619"
       r="4"
       inkscape:label="button7" />
    <circle
       inkscape:label="blink6c"
       r="4"
       cy="100.24037"
       cx="28.127935"
       id="circle66-9-83-8-4-5-5"
       style="display:none;vector-effect:none;fill:#ff00ff;fill-opacity:1;fill-rule:evenodd;stroke:none;stroke-width:1;stroke-linecap:butt;stroke-linejoin:miter;stroke-miterlimit:4;stroke-dasharray:none;stroke-dashoffset:0;stroke-opacity:1;paint-order:normal" />
    <circle
       inkscape:label="blink6b"
       r="4"
       cy="100.24037"
       cx="24.250257"
       id="circle66-9-7-9-7-3-5-6"
       style="display:none;vector-effect:none;fill:#ff00ff;fill-opacity:1;fill-rule:evenodd;stroke:none;stroke-width:1;stroke-linecap:butt;stroke-linejoin:miter;stroke-miterlimit:4;stroke-dasharray:none;stroke-dashoffset:0;stroke-opacity:1;paint-order:normal" />
    <circle
       inkscape:label="blink6a"
       r="4"
       cy="100.24037"
       cx="20.289827"
       id="circle66-9-7-7-0-7-8-6-8"
       style="display:none;vector-effect:none;fill:#ff00ff;fill-opacity:1;fill-rule:evenodd;stroke:none;stroke-width:1;stroke-linecap:butt;stroke-linejoin:miter;stroke-miterlimit:4;stroke-dasharray:none;stroke-dashoffset:0;stroke-opacity:1;paint-order:normal" />
    <circle
       style="display:none;vector-effect:none;fill:#ff0000;fill-opacity:1;fill-rule:evenodd;stroke:none;stroke-width:1;stroke-linecap:butt;stroke-linejoin:miter;stroke-miterlimit:4;stroke-dasharray:none;stroke-dashoffset:0;stroke-opacity:1;paint-order:normal"
       id="path4954-3-5-4-4-3-5"
       cx="14.710834"
       cy="100.24037"
       r="4"
       inkscape:label="button6" />
    <circle
       inkscape:label="blink5c"
       r="4"
       cy="91.24453"
       cx="28.127935"
       id="circle66-9-83-8-4-5"
       style="display:none;vector-effect:none;fill:#ff00ff;fill-opacity:1;fill-rule:evenodd;stroke:none;stroke-width:1;stroke-linecap:butt;stroke-linejoin:miter;stroke-miterlimit:4;stroke-dasharray:none;stroke-dashoffset:0;stroke-opacity:1;paint-order:normal" />
    <circle
       inkscape:label="blink5b"
       r="4"
       cy="91.24453"
       cx="24.250257"
       id="circle66-9-7-9-7-3-5"
       style="display:none;vector-effect:none;fill:#ff00ff;fill-opacity:1;fill-rule:evenodd;stroke:none;stroke-width:1;stroke-linecap:butt;stroke-linejoin:miter;stroke-miterlimit:4;stroke-dasharray:none;stroke-dashoffset:0;stroke-opacity:1;paint-order:normal" />
    <circle
       inkscape:label="blink5a"
       r="4"
       cy="91.24453"
       cx="20.289827"
       id="circle66-9-7-7-0-7-8-6"
       style="display:none;vector-effect:none;fill:#ff00ff;fill-opacity:1;fill-rule:evenodd;stroke:none;stroke-width:1;stroke-linecap:butt;stroke-linejoin:miter;stroke-miterlimit:4;stroke-dasharray:none;stroke-dashoffset:0;stroke-opacity:1;paint-order:normal" />
    <circle
       style="display:none;vector-effect:none;fill:#ff0000;fill-opacity:1;fill-rule:evenodd;stroke:none;stroke-width:1;stroke-linecap:butt;stroke-linejoin:miter;stroke-miterlimit:4;stroke-dasharray:none;stroke-dashoffset:0;stroke-opacity:1;paint-order:normal"
       id="path4954-3-5-4-4-3"
       cx="14.710834"
       cy="91.24453"
       r="4"
       inkscape:label="button5" />
    <circle
       inkscape:label="blink4c"
       r="4"
       cy="82.248688"
       cx="28.127935"
       id="circle66-9-83-8-4"
       style="display:none;vector-effect:none;fill:#ff00ff;fill-opacity:1;fill-rule:evenodd;stroke:none;stroke-width:1;stroke-linecap:butt;stroke-linejoin:miter;stroke-miterlimit:4;stroke-dasharray:none;stroke-dashoffset:0;stroke-opacity:1;paint-order:normal" />
    <circle
       inkscape:label="blink4b"
       r="4"
       cy="82.248688"
       cx="24.250257"
       id="circle66-9-7-9-7-3"
       style="display:none;vector-effect:none;fill:#ff00ff;fill-opacity:1;fill-rule:evenodd;stroke:none;stroke-width:1;stroke-linecap:butt;stroke-linejoin:miter;stroke-miterlimit:4;stroke-dasharray:none;stroke-dashoffset:0;stroke-opacity:1;paint-order:normal" />
    <circle
       inkscape:label="blink4a"
       r="4"
       cy="82.248688"
       cx="20.289827"
       id="circle66-9-7-7-0-7-8"
       style="display:none;vector-effect:none;fill:#ff00ff;fill-opacity:1;fill-rule:evenodd;stroke:none;stroke-width:1;stroke-linecap:butt;stroke-linejoin:miter;stroke-miterlimit:4;stroke-dasharray:none;stroke-dashoffset:0;stroke-opacity:1;paint-order:normal" />
    <circle
       style="display:none;vector-effect:none;fill:#ff0000;fill-opacity:1;fill-rule:evenodd;stroke:none;stroke-width:1;stroke-linecap:butt;stroke-linejoin:miter;stroke-miterlimit:4;stroke-dasharray:none;stroke-dashoffset:0;stroke-opacity:1;paint-order:normal"
       id="path4954-3-5-4-4"
       cx="14.710834"
       cy="82.248688"
       r="4"
       inkscape:label="button4" />
    <circle
       inkscape:label="blink3c"
       r="4"
       cy="73.252846"
       cx="28.127935"
       id="circle66-9-83-8"
       style="display:none;vector-effect:none;fill:#ff00ff;fill-opacity:1;fill-rule:evenodd;stroke:none;stroke-width:1;stroke-linecap:butt;stroke-linejoin:miter;stroke-miterlimit:4;stroke-dasharray:none;stroke-dashoffset:0;stroke-opacity:1;paint-order:normal" />
    <circle
       inkscape:label="blink3b"
       r="4"
       cy="73.252846"
       cx="24.250257"
       id="circle66-9-7-9-7"
       style="display:none;vector-effect:none;fill:#ff00ff;fill-opacity:1;fill-rule:evenodd;stroke:none;stroke-width:1;stroke-linecap:butt;stroke-linejoin:miter;stroke-miterlimit:4;stroke-dasharray:none;stroke-dashoffset:0;stroke-opacity:1;paint-order:normal" />
    <circle
       inkscape:label="blink3a"
       r="4"
       cy="73.252846"
       cx="20.289827"
       id="circle66-9-7-7-0-7"
       style="display:none;vector-effect:none;fill:#ff00ff;fill-opacity:1;fill-rule:evenodd;stroke:none;stroke-width:1;stroke-linecap:butt;stroke-linejoin:miter;stroke-miterlimit:4;stroke-dasharray:none;stroke-dashoffset:0;stroke-opacity:1;paint-order:normal" />
    <circle
       style="display:none;vector-effect:none;fill:#ff0000;fill-opacity:1;fill-rule:evenodd;stroke:none;stroke-width:1;stroke-linecap:butt;stroke-linejoin:miter;stroke-miterlimit:4;stroke-dasharray:none;stroke-dashoffset:0;stroke-opacity:1;paint-order:normal"
       id="path4954-3-5-4"
       cx="14.710834"
       cy="73.252846"
       r="4"
       inkscape:label="button3" />
    <circle
       inkscape:label="blink2c"
       r="4"
       cy="64.257004"
       cx="28.127935"
       id="circle66-9-83"
       style="display:none;vector-effect:none;fill:#ff00ff;fill-opacity:1;fill-rule:evenodd;stroke:none;stroke-width:1;stroke-linecap:butt;stroke-linejoin:miter;stroke-miterlimit:4;stroke-dasharray:none;stroke-dashoffset:0;stroke-opacity:1;paint-order:normal" />
    <circle
       inkscape:label="blink2b"
       r="4"
       cy="64.257004"
       cx="24.250257"
       id="circle66-9-7-9"
       style="display:none;vector-effect:none;fill:#ff00ff;fill-opacity:1;fill-rule:evenodd;stroke:none;stroke-width:1;stroke-linecap:butt;stroke-linejoin:miter;stroke-miterlimit:4;stroke-dasharray:none;stroke-dashoffset:0;stroke-opacity:1;paint-order:normal" />
    <circle
       inkscape:label="blink2a"
       r="4"
       cy="64.257004"
       cx="20.289827"
       id="circle66-9-7-7-0"
       style="display:none;vector-effect:none;fill:#ff00ff;fill-opacity:1;fill-rule:evenodd;stroke:none;stroke-width:1;stroke-linecap:butt;stroke-linejoin:miter;stroke-miterlimit:4;stroke-dasharray:none;stroke-dashoffset:0;stroke-opacity:1;paint-order:normal" />
    <circle
       style="display:none;vector-effect:none;fill:#ff0000;fill-opacity:1;fill-rule:evenodd;stroke:none;stroke-width:1;stroke-linecap:butt;stroke-linejoin:miter;stroke-miterlimit:4;stroke-dasharray:none;stroke-dashoffset:0;stroke-opacity:1;paint-order:normal"
       id="path4954-3-5"
       cx="14.710834"
       cy="64.257004"
       r="4"
       inkscape:label="button2" />
    <circle
       inkscape:label="blink1c"
       r="4"
       cy="55.261856"
       cx="28.127935"
       id="circle66-9"
       style="display:none;vector-effect:none;fill:#ff00ff;fill-opacity:1;fill-rule:evenodd;stroke:none;stroke-width:1;stroke-linecap:butt;stroke-linejoin:miter;stroke-miterlimit:4;stroke-dasharray:none;stroke-dashoffset:0;stroke-opacity:1;paint-order:normal" />
    <circle
       inkscape:label="blink1b"
       r="4"
       cy="55.261856"
       cx="24.250257"
       id="circle66-9-7"
       style="display:none;vector-effect:none;fill:#ff00ff;fill-opacity:1;fill-rule:evenodd;stroke:none;stroke-width:1;stroke-linecap:butt;stroke-linejoin:miter;stroke-miterlimit:4;stroke-dasharray:none;stroke-dashoffset:0;stroke-opacity:1;paint-order:normal" />
    <circle
       inkscape:label="blink1a"
       r="4"
       cy="55.261856"
       cx="20.289827"
       id="circle66-9-7-7"
       style="display:none;vector-effect:none;fill:#ff00ff;fill-opacity:1;fill-rule:evenodd;stroke:none;stroke-width:1;stroke-linecap:butt;stroke-linejoin:miter;stroke-miterlimit:4;stroke-dasharray:none;stroke-dashoffset:0;stroke-opacity:1;paint-order:normal" />
    <circle
       style="display:none;vector-effect:none;fill:#ff0000;fill-opacity:1;fill-rule:evenodd;stroke:none;stroke-width:1;stroke-linecap:butt;stroke-linejoin:miter;stroke-miterlimit:4;stroke-dasharray:none;stroke-dashoffset:0;stroke-opacity:1;paint-order:normal"
       id="path4954-3"
       cx="14.710834"
       cy="55.261856"
       r="4"
       inkscape:label="button1" />
    <circle
       inkscape:label="presetc"
       r="4"
       cy="20.907715"
       cx="28.128267"
       id="circle66-9-8"
       style="display:none;vector-effect:none;fill:#ff00ff;fill-opacity:1;fill-rule:evenodd;stroke:none;stroke-width:1;stroke-linecap:butt;stroke-linejoin:miter;stroke-miterlimit:4;stroke-dasharray:none;stroke-dashoffset:0;stroke-opacity:1;paint-order:normal" />
    <circle
       inkscape:label="presetb"
       r="4"
       cy="20.907715"
       cx="24.250589"
       id="circle66-9-7-0"
       style="display:none;vector-effect:none;fill:#ff00ff;fill-opacity:1;fill-rule:evenodd;stroke:none;stroke-width:1;stroke-linecap:butt;stroke-linejoin:miter;stroke-miterlimit:4;stroke-dasharray:none;stroke-dashoffset:0;stroke-opacity:1;paint-order:normal" />
    <circle
       inkscape:label="preseta"
       r="4"
       cy="20.907715"
       cx="20.290159"
       id="circle66-9-7-7-1"
       style="display:none;vector-effect:none;fill:#ff00ff;fill-opacity:1;fill-rule:evenodd;stroke:none;stroke-width:1;stroke-linecap:butt;stroke-linejoin:miter;stroke-miterlimit:4;stroke-dasharray:none;stroke-dashoffset:0;stroke-opacity:1;paint-order:normal" />
    <circle
       style="display:none;vector-effect:none;fill:#ff0000;fill-opacity:1;fill-rule:evenodd;stroke:none;stroke-width:1;stroke-linecap:butt;stroke-linejoin:miter;stroke-miterlimit:4;stroke-dasharray:none;stroke-dashoffset:0;stroke-opacity:1;paint-order:normal"
       id="path4954-3-0"
       cx="14.711"
       cy="20.907715"
       r="4"
       inkscape:label="preset" />
    <circle
       style="display:inline;vector-effect:none;fill:#00ff00;fill-opacity:1;fill-rule:evenodd;stroke:none;stroke-width:1;stroke-linecap:butt;stroke-linejoin:miter;stroke-miterlimit:4;stroke-dasharray:none;stroke-dashoffset:0;stroke-opacity:1;paint-order:normal"
       id="path4954-3-2"
       cx="7.8509393"
       cy="37.847885"
       r="4"
       inkscape:label="index" />
    <circle
       style="display:inline;vector-effect:none;fill:#00ff00;fill-opacity:1;fill-rule:evenodd;stroke:none;stroke-width:1;stroke-linecap:butt;stroke-linejoin:miter;stroke-miterlimit:4;stroke-dasharray:none;stroke-dashoffset:0;stroke-opacity:1;paint-order:normal"
       id="path4954-3-2-4"
       cx="19.995935"
       cy="37.847885"
       r="4"
       inkscape:label="next" />
    <circle
       r="4"
       cy="37.850285"
       cx="32.114666"
       id="circle4956-6"
       style="display:inline;vector-effect:none;fill:#00ff00;fill-opacity:1;fill-rule:evenodd;stroke:none;stroke-width:1;stroke-linecap:butt;stroke-linejoin:miter;stroke-miterlimit:4;stroke-dasharray:none;stroke-dashoffset:0;stroke-opacity:1;paint-order:normal"
       inkscape:label="reset" />
    <circle
       r="4"
       cy="55.262001"
       cx="6.009542"
       id="circle4956"
       style="display:inline;vector-effect:none;fill:#00ff00;fill-opacity:1;fill-rule:evenodd;stroke:none;stroke-width:1;stroke-linecap:butt;stroke-linejoin:miter;stroke-miterlimit:4;stroke-dasharray:none;stroke-dashoffset:0;stroke-opacity:1;paint-order:normal"
       inkscape:label="freq" />
    <circle
       r="4"
       cy="73.252998"
       cx="6.0093336"
       id="circle4956-9"
       style="display:inline;vector-effect:none;fill:#00ff00;fill-opacity:1;fill-rule:evenodd;stroke:none;stroke-width:1;stroke-linecap:butt;stroke-linejoin:miter;stroke-miterlimit:4;stroke-dasharray:none;stroke-dashoffset:0;stroke-opacity:1;paint-order:normal"
       inkscape:label="input" />
    <circle
       r="4"
       cy="91.245003"
       cx="6.0093336"
       id="circle4956-9-6"
       style="display:inline;vector-effect:none;fill:#00ff00;fill-opacity:1;fill-rule:evenodd;stroke:none;stroke-width:1;stroke-linecap:butt;stroke-linejoin:miter;stroke-miterlimit:4;stroke-dasharray:none;stroke-dashoffset:0;stroke-opacity:1;paint-order:normal"
       inkscape:label="clock" />
  </g>
</svg>
