<?xml version="1.0" encoding="UTF-8" standalone="no"?>
<!-- Created with Inkscape (http://www.inkscape.org/) -->

<svg
   width="20.32mm"
   height="128.5mm"
   viewBox="0 0 20.320001 128.50002"
   version="1.1"
   id="svg8"
   inkscape:version="1.3.2 (091e20e, 2023-11-25)"
   sodipodi:docname="FirstModule2.svg"
   xmlns:inkscape="http://www.inkscape.org/namespaces/inkscape"
   xmlns:sodipodi="http://sodipodi.sourceforge.net/DTD/sodipodi-0.dtd"
   xmlns="http://www.w3.org/2000/svg"
   xmlns:svg="http://www.w3.org/2000/svg"
   xmlns:rdf="http://www.w3.org/1999/02/22-rdf-syntax-ns#"
   xmlns:cc="http://creativecommons.org/ns#"
   xmlns:dc="http://purl.org/dc/elements/1.1/">
  <defs
     id="defs2" />
  <sodipodi:namedview
     id="base"
     pagecolor="#ffffff"
     bordercolor="#666666"
     borderopacity="1.0"
     inkscape:pageopacity="0.0"
     inkscape:pageshadow="2"
     inkscape:zoom="2.0634661"
     inkscape:cx="23.01952"
     inkscape:cy="163.31744"
     inkscape:document-units="mm"
     inkscape:current-layer="layer1"
     showgrid="false"
     units="mm"
     inkscape:snap-bbox="true"
     inkscape:snap-page="true"
     inkscape:bbox-nodes="false"
     inkscape:snap-bbox-edge-midpoints="false"
     inkscape:window-width="1440"
     inkscape:window-height="847"
     inkscape:window-x="0"
     inkscape:window-y="25"
     inkscape:window-maximized="0"
     inkscape:snap-bbox-midpoints="true"
     inkscape:snap-nodes="false"
     inkscape:showpageshadow="2"
     inkscape:pagecheckerboard="0"
     inkscape:deskcolor="#d1d1d1"
     showguides="true">
    <sodipodi:guide
       position="10.062631,113.71568"
       orientation="1,0"
       id="guide2"
       inkscape:locked="false" />
    <sodipodi:guide
       position="4.9808773,60.162382"
       orientation="1,0"
       id="guide3"
       inkscape:locked="false" />
    <sodipodi:guide
       position="14.942631,49.802159"
       orientation="1,0"
       id="guide4"
       inkscape:locked="false" />
  </sodipodi:namedview>
  <metadata
     id="metadata5">
    <rdf:RDF>
      <cc:Work
         rdf:about="">
        <dc:format>image/svg+xml</dc:format>
        <dc:type
           rdf:resource="http://purl.org/dc/dcmitype/StillImage" />
        <dc:title />
      </cc:Work>
    </rdf:RDF>
  </metadata>
  <g
     inkscape:label="Layer 1"
     inkscape:groupmode="layer"
     id="layer1"
     transform="translate(0,-168.49998)">
    <rect
       style="display:inline;opacity:1;vector-effect:none;fill:#1e1e1e;fill-opacity:1;fill-rule:evenodd;stroke:none;stroke-width:0.530199;stroke-linecap:butt;stroke-linejoin:miter;stroke-miterlimit:4;stroke-dasharray:none;stroke-dashoffset:0;stroke-opacity:1;paint-order:normal"
       id="rect420"
       width="20.32"
       height="128.5"
       x="5.9211732e-17"
       y="168.49997" />
    <rect
       style="fill:#a68af9;stroke-width:0.276593"
       id="rect23"
       width="19.333778"
       height="20.545736"
       x="0.48321295"
       y="262.13776" />
    <rect
       style="fill:#a68af9;stroke-width:0.218287"
       id="rect22"
       width="0.22778626"
       height="5.0820742"
       x="9.9466658"
       y="217.16013" />
    <g
       id="g21"
       style="display:none">
      <text
         xml:space="preserve"
         style="font-style:normal;font-variant:normal;font-weight:bold;font-stretch:normal;font-size:3.175px;line-height:0.95;font-family:Lato;-inkscape-font-specification:'Lato, Bold';font-variant-ligatures:normal;font-variant-caps:normal;font-variant-numeric:normal;font-variant-east-asian:normal;text-align:center;letter-spacing:-0.132292px;text-anchor:middle;fill:#dadada;fill-opacity:1;stroke-width:0.264583"
         x="10.173208"
         y="183.81503"
         id="text32"
         inkscape:label="mask"><tspan
           sodipodi:role="line"
           id="tspan34"
           x="10.107062"
           y="183.81503">GENERATOR</tspan></text>
      <text
         xml:space="preserve"
         style="font-style:normal;font-variant:normal;font-weight:bold;font-stretch:normal;font-size:3.175px;line-height:0.95;font-family:Lato;-inkscape-font-specification:'Lato, Bold';font-variant-ligatures:normal;font-variant-caps:normal;font-variant-numeric:normal;font-variant-east-asian:normal;text-align:center;letter-spacing:-0.132292px;text-anchor:middle;display:inline;fill:#dadada;fill-opacity:1;stroke-width:0.264583"
         x="10.173208"
         y="177.79027"
         id="text2"
         inkscape:label="probabilistic"><tspan
           sodipodi:role="line"
           id="tspan35"
           x="10.107062"
           y="177.79027"
           style="letter-spacing:-0.132292px">SWUNG</tspan></text>
      <text
         xml:space="preserve"
         style="font-style:normal;font-variant:normal;font-weight:bold;font-stretch:normal;font-size:3.175px;line-height:0.95;font-family:Lato;-inkscape-font-specification:'Lato, Bold';font-variant-ligatures:normal;font-variant-caps:normal;font-variant-numeric:normal;font-variant-east-asian:normal;text-align:center;letter-spacing:-0.132292px;text-anchor:middle;fill:#a68af9;fill-opacity:1;stroke-width:0.264583"
         x="10.275323"
         y="180.75159"
         id="text35"
         inkscape:label="ramp"><tspan
           sodipodi:role="line"
           id="tspan53"
           x="10.209177"
           y="180.75159">RAMP</tspan></text>
      <text
         xml:space="preserve"
         style="font-style:normal;font-variant:normal;font-weight:normal;font-stretch:normal;font-size:3.175px;line-height:0.95;font-family:Lato;-inkscape-font-specification:'Lato, Normal';font-variant-ligatures:normal;font-variant-caps:normal;font-variant-numeric:normal;font-variant-east-asian:normal;text-align:center;letter-spacing:-0.132292px;text-anchor:middle;fill:#dadada;fill-opacity:1;stroke-width:0.264583"
         x="10.018014"
         y="215.35283"
         id="text2-9"
         inkscape:label="pitch"><tspan
           sodipodi:role="line"
           id="tspan8-7"
           x="9.9518681"
           y="215.35283">SWING</tspan></text>
      <text
         xml:space="preserve"
         style="font-style:normal;font-variant:normal;font-weight:900;font-stretch:normal;font-size:3.175px;line-height:0.95;font-family:Lato;-inkscape-font-specification:'Lato, Heavy';font-variant-ligatures:normal;font-variant-caps:normal;font-variant-numeric:normal;font-variant-east-asian:normal;text-align:center;letter-spacing:-0.132292px;text-anchor:middle;fill:#a68af9;fill-opacity:1;stroke-width:0.264583"
         x="10.03914"
         y="287.58588"
         id="text2-3"
         inkscape:label="phasor"><tspan
           sodipodi:role="line"
           id="tspan11"
           x="9.9729939"
           y="287.58588">PHASOR</tspan></text>
      <text
         xml:space="preserve"
         style="font-style:normal;font-variant:normal;font-weight:900;font-stretch:normal;font-size:3.175px;line-height:0.95;font-family:Lato;-inkscape-font-specification:'Lato, Heavy';font-variant-ligatures:normal;font-variant-caps:normal;font-variant-numeric:normal;font-variant-east-asian:normal;text-align:center;letter-spacing:-0.132292px;text-anchor:middle;fill:#dadada;fill-opacity:1;stroke-width:0.264583"
         x="10.017658"
         y="290.56744"
         id="text2-3-9"
         inkscape:label="space"><tspan
           sodipodi:role="line"
           id="tspan11-0"
           x="9.9515123"
           y="290.56744">SPACE</tspan></text>
      <text
         xml:space="preserve"
         style="font-style:normal;font-variant:normal;font-weight:normal;font-stretch:normal;font-size:3.175px;line-height:0.95;font-family:Lato;-inkscape-font-specification:'Lato, Normal';font-variant-ligatures:normal;font-variant-caps:normal;font-variant-numeric:normal;font-variant-east-asian:normal;text-align:center;letter-spacing:-0.132292px;text-anchor:middle;fill:#dadada;fill-opacity:1;stroke-width:0.264583"
         x="9.9583406"
         y="238.6205"
         id="text2-9-3"
         inkscape:label="1voct"><tspan
           sodipodi:role="line"
           id="tspan8-7-1"
           x="9.8921947"
           y="238.6205">CV</tspan></text>
      <text
         xml:space="preserve"
         style="font-style:normal;font-variant:normal;font-weight:normal;font-stretch:normal;font-size:3.175px;line-height:0.95;font-family:Lato;-inkscape-font-specification:'Lato, Normal';font-variant-ligatures:normal;font-variant-caps:normal;font-variant-numeric:normal;font-variant-east-asian:normal;text-align:center;letter-spacing:-0.132292px;text-anchor:middle;display:inline;fill:#dadada;fill-opacity:1;stroke-width:0.264583"
         x="10.078507"
         y="257.77676"
         id="text2-9-3-6"
         inkscape:label="1voct"><tspan
           sodipodi:role="line"
           id="tspan8-7-1-0"
           x="10.012362"
           y="257.77676">RAMP</tspan></text>
      <text
         xml:space="preserve"
         style="font-style:normal;font-variant:normal;font-weight:normal;font-stretch:normal;font-size:3.175px;line-height:0.95;font-family:Lato;-inkscape-font-specification:'Lato, Normal';font-variant-ligatures:normal;font-variant-caps:normal;font-variant-numeric:normal;font-variant-east-asian:normal;text-align:center;letter-spacing:-0.211667px;text-anchor:middle;fill:#1e1e1e;fill-opacity:1;stroke-width:0.264583"
         x="4.854352"
         y="280.00873"
         id="text2-9-3-4"
         inkscape:label="ramp"><tspan
           sodipodi:role="line"
           id="tspan8-7-1-8"
           x="4.7485185"
           y="280.00873"
           style="letter-spacing:-0.211667px">RAMP</tspan></text>
      <text
         xml:space="preserve"
         style="font-style:normal;font-variant:normal;font-weight:normal;font-stretch:normal;font-size:3.175px;line-height:0.95;font-family:Lato;-inkscape-font-specification:'Lato, Normal';font-variant-ligatures:normal;font-variant-caps:normal;font-variant-numeric:normal;font-variant-east-asian:normal;text-align:center;letter-spacing:-0.132292px;text-anchor:middle;display:inline;fill:#1e1e1e;fill-opacity:1;stroke-width:0.264583"
         x="15.01273"
         y="280.02664"
         id="text2-9-3-4-7"
         inkscape:label="trig"><tspan
           sodipodi:role="line"
           id="tspan8-7-1-8-8"
           x="14.946584"
           y="280.02664">TRIG</tspan></text>
    </g>
    <g
       id="g22"
       style="display:inline">
      <path
         d="m 2.5807254,183.50071 q 0.1444625,0 0.250825,-0.0254 0.10795,-0.027 0.2047875,-0.073 v -0.41751 H 2.7490004 q -0.041275,0 -0.065087,-0.0222 -0.023813,-0.0238 -0.023813,-0.0572 v -0.2413 h 0.7635875 v 0.92868 q -0.087312,0.0635 -0.1825625,0.11113 -0.093663,0.046 -0.2016125,0.0762 -0.1063625,0.0302 -0.2286,0.0444 -0.1222375,0.0159 -0.263525,0.0159 -0.250825,0 -0.4619625,-0.0873 -0.2111375,-0.0873 -0.365125,-0.24289 -0.1539875,-0.15557 -0.2413,-0.37147 -0.085725,-0.2159 -0.085725,-0.47149 0,-0.25876 0.084137,-0.47466 0.084137,-0.2159 0.238125,-0.37148 0.155575,-0.15557 0.3762375,-0.2413 0.2206625,-0.0857 0.4953,-0.0857 0.2809875,0 0.485775,0.0841 0.206375,0.0825 0.34925,0.2159 l -0.123825,0.19367 q -0.036513,0.0587 -0.096837,0.0587 -0.0381,0 -0.077788,-0.0254 -0.0508,-0.0302 -0.104775,-0.0603 -0.052388,-0.0302 -0.117475,-0.0524 -0.0635,-0.0222 -0.1444625,-0.0365 -0.079375,-0.0143 -0.18415,-0.0143 -0.1698625,0 -0.307975,0.0572 -0.136525,0.0571 -0.2333625,0.16351 -0.096838,0.10636 -0.149225,0.25559 -0.052388,0.14922 -0.052388,0.33337 0,0.19844 0.055562,0.35401 0.055562,0.15399 0.155575,0.26035 0.1000125,0.10637 0.238125,0.16352 0.1381125,0.0556 0.301625,0.0556 z m 2.5569316,-1.9812 v 0.33972 H 4.1200695 v 0.63659 H 4.921757 v 0.32861 H 4.1200695 v 0.64929 H 5.137657 v 0.34131 H 3.6898571 v -2.29552 z m 0.4614337,0 q 0.028575,0 0.047625,0.003 0.01905,0.002 0.033338,0.01 0.015875,0.006 0.030163,0.0206 0.014288,0.0127 0.03175,0.0349 l 1.2049125,1.53511 q -0.00635,-0.0556 -0.00952,-0.10795 -0.00159,-0.054 -0.00159,-0.10001 v -1.39541 h 0.3762375 v 2.29552 H 7.0913407 q -0.0508,0 -0.084137,-0.0159 -0.033338,-0.0159 -0.065088,-0.0572 l -1.20015,-1.52876 q 0.00476,0.0508 0.00635,0.1016 0.00317,0.0492 0.00317,0.0905 v 1.4097 H 5.3752532 v -2.29552 h 0.2238375 z m 3.4919724,0 v 0.33972 H 8.0734756 v 0.63659 h 0.8016875 v 0.32861 H 8.0734756 v 0.64929 h 1.0175875 v 0.34131 h -1.4478 v -2.29552 z m 0.6789212,1.39859 v 0.89693 H 9.3429468 v -2.29552 h 0.7000872 q 0.23495,0 0.401638,0.0492 0.168275,0.0476 0.274637,0.13494 0.10795,0.0873 0.157163,0.20955 0.0508,0.12065 0.0508,0.2667 0,0.11589 -0.03493,0.21907 -0.03334,0.10319 -0.09842,0.18733 -0.0635,0.0841 -0.15875,0.14764 -0.09366,0.0635 -0.214313,0.1016 0.08096,0.046 0.1397,0.13176 l 0.574675,0.84772 h -0.384175 q -0.05556,0 -0.09525,-0.0222 -0.0381,-0.0222 -0.06509,-0.0635 l -0.4826,-0.73501 q -0.02699,-0.0413 -0.06033,-0.0587 -0.03175,-0.0175 -0.09525,-0.0175 z m 0,-0.30639 h 0.2666997 q 0.12065,0 0.20955,-0.0302 0.09049,-0.0302 0.147638,-0.0825 0.05874,-0.054 0.08731,-0.127 0.02858,-0.073 0.02858,-0.16034 0,-0.17463 -0.115887,-0.26829 -0.1143,-0.0937 -0.350838,-0.0937 H 9.7699843 Z m 3.5237227,1.20332 h -0.3302 q -0.05556,0 -0.09207,-0.027 -0.03493,-0.0286 -0.0508,-0.0699 l -0.17145,-0.46832 h -0.950913 l -0.17145,0.46832 q -0.0127,0.0365 -0.0508,0.0667 -0.03651,0.0302 -0.09049,0.0302 h -0.331788 l 0.9017,-2.29552 h 0.436563 z m -1.4859,-0.86677 h 0.731837 l -0.2794,-0.76359 q -0.01905,-0.0508 -0.04286,-0.11906 -0.02223,-0.0699 -0.04445,-0.15081 -0.02222,0.081 -0.04445,0.15081 -0.02064,0.0699 -0.04128,0.12224 z m 2.974443,-1.42875 v 0.35084 h -0.690562 v 1.94468 H 13.66465 v -1.94468 h -0.693737 v -0.35084 z m 2.217207,1.14776 q 0,0.25241 -0.08414,0.46831 -0.08414,0.21432 -0.236538,0.37148 -0.1524,0.15716 -0.366712,0.24606 -0.214313,0.0873 -0.474663,0.0873 -0.26035,0 -0.47625,-0.0873 -0.214312,-0.0889 -0.3683,-0.24606 -0.1524,-0.15716 -0.236537,-0.37148 -0.08414,-0.2159 -0.08414,-0.46831 0,-0.25241 0.08414,-0.46672 0.08414,-0.2159 0.236537,-0.37307 0.153988,-0.15716 0.3683,-0.24447 0.2159,-0.0889 0.47625,-0.0889 0.26035,0 0.474663,0.0889 0.214312,0.0889 0.366712,0.24606 0.1524,0.15558 0.236538,0.37148 0.08414,0.21431 0.08414,0.46672 z m -0.43815,0 q 0,-0.18891 -0.0508,-0.33814 -0.04921,-0.15081 -0.142875,-0.25558 -0.09366,-0.10478 -0.2286,-0.16034 -0.13335,-0.0556 -0.301625,-0.0556 -0.168275,0 -0.303212,0.0556 -0.134938,0.0556 -0.230188,0.16034 -0.09366,0.10477 -0.144462,0.25558 -0.0508,0.14923 -0.0508,0.33814 0,0.18891 0.0508,0.33973 0.0508,0.14922 0.144462,0.254 0.09525,0.10318 0.230188,0.15875 0.134937,0.0556 0.303212,0.0556 0.168275,0 0.301625,-0.0556 0.134938,-0.0556 0.2286,-0.15875 0.09366,-0.10478 0.142875,-0.254 0.0508,-0.15082 0.0508,-0.33973 z m 1.083732,0.25083 v 0.89693 h -0.427037 v -2.29552 h 0.700087 q 0.23495,0 0.401638,0.0492 0.168275,0.0476 0.274637,0.13494 0.10795,0.0873 0.157163,0.20955 0.0508,0.12065 0.0508,0.2667 0,0.11589 -0.03492,0.21907 -0.03334,0.10319 -0.09842,0.18733 -0.0635,0.0841 -0.15875,0.14764 -0.09366,0.0635 -0.214313,0.1016 0.08096,0.046 0.1397,0.13176 l 0.574675,0.84772 h -0.384175 q -0.05556,0 -0.09525,-0.0222 -0.0381,-0.0222 -0.06509,-0.0635 l -0.4826,-0.73501 q -0.02699,-0.0413 -0.06033,-0.0587 -0.03175,-0.0175 -0.09525,-0.0175 z m 0,-0.30639 h 0.2667 q 0.12065,0 0.20955,-0.0302 0.09049,-0.0302 0.147638,-0.0825 0.05874,-0.054 0.08731,-0.127 0.02858,-0.073 0.02858,-0.16034 0,-0.17463 -0.115887,-0.26829 -0.1143,-0.0937 -0.350838,-0.0937 h -0.27305 z"
         id="text12"
         style="font-weight:bold;font-size:3.175px;line-height:0.95;font-family:Lato;-inkscape-font-specification:'Lato, Bold';text-align:center;letter-spacing:-0.132292px;text-anchor:middle;fill:#dadada;stroke-width:0.264583"
         inkscape:label="mask"
         aria-label="GENERATOR" />
      <path
         d="m 5.8832534,175.91226 q -0.017462,0.0349 -0.041275,0.0492 -0.022225,0.0143 -0.053975,0.0143 -0.03175,0 -0.071438,-0.0238 -0.039688,-0.0254 -0.093662,-0.0556 -0.053975,-0.0302 -0.127,-0.054 -0.071438,-0.0254 -0.1698625,-0.0254 -0.0889,0 -0.155575,0.0222 -0.065087,0.0206 -0.111125,0.0587 -0.04445,0.0381 -0.066675,0.0921 -0.022225,0.0524 -0.022225,0.11589 0,0.081 0.04445,0.13494 0.046037,0.054 0.12065,0.0921 0.074613,0.0381 0.1698625,0.0683 0.09525,0.0302 0.193675,0.0651 0.1000125,0.0333 0.1952625,0.0794 0.09525,0.0445 0.1698625,0.1143 0.074612,0.0683 0.1190625,0.16827 0.046037,0.10002 0.046037,0.24289 0,0.15558 -0.053975,0.2921 -0.052388,0.13494 -0.155575,0.23654 -0.1016,0.10001 -0.2492375,0.15875 -0.1476375,0.0572 -0.3381375,0.0572 -0.1095375,0 -0.2159,-0.0222 -0.1063625,-0.0206 -0.2047875,-0.0603 -0.096838,-0.0397 -0.1825625,-0.0953 -0.084137,-0.0556 -0.1508125,-0.12383 l 0.123825,-0.20478 q 0.017462,-0.0222 0.041275,-0.0365 0.0254,-0.0159 0.055562,-0.0159 0.039688,0 0.085725,0.0333 0.046038,0.0317 0.10795,0.0714 0.0635,0.0397 0.1476375,0.073 0.085725,0.0317 0.2047875,0.0317 0.1825625,0 0.282575,-0.0857 0.1000125,-0.0873 0.1000125,-0.24923 0,-0.0905 -0.046038,-0.14764 -0.04445,-0.0572 -0.1190625,-0.0953 -0.074613,-0.0397 -0.1698625,-0.0667 -0.09525,-0.027 -0.193675,-0.0587 -0.098425,-0.0317 -0.193675,-0.0762 -0.09525,-0.0445 -0.1698625,-0.11589 -0.074613,-0.0714 -0.12065,-0.1778 -0.04445,-0.10795 -0.04445,-0.26511 0,-0.12542 0.049213,-0.24448 0.0508,-0.11906 0.14605,-0.21114 0.096838,-0.0921 0.2365375,-0.14763 0.1397,-0.0556 0.3190875,-0.0556 0.2032,0 0.37465,0.0635 0.17145,0.0635 0.2921,0.1778 z m 0.1280609,-0.41752 h 0.358775 q 0.055562,0 0.092075,0.027 0.0381,0.0254 0.0508,0.0699 l 0.390525,1.37319 q 0.014288,0.0508 0.0254,0.11112 0.0127,0.0587 0.023813,0.12542 0.0127,-0.0667 0.026988,-0.12542 0.015875,-0.0603 0.033337,-0.11112 l 0.45085,-1.37319 q 0.0127,-0.0365 0.049212,-0.0667 0.0381,-0.0302 0.092075,-0.0302 h 0.1254125 q 0.055563,0 0.092075,0.027 0.036512,0.0254 0.0508,0.0699 l 0.447675,1.37319 q 0.034925,0.1016 0.060325,0.22542 0.011112,-0.0619 0.022225,-0.11906 0.0127,-0.0572 0.0254,-0.10636 l 0.390525,-1.37319 q 0.011113,-0.0397 0.049213,-0.0683 0.0381,-0.0286 0.092075,-0.0286 h 0.3349625 l -0.7127875,2.29553 H 8.1973018 l -0.50165,-1.56845 q -0.00953,-0.0302 -0.020638,-0.0651 -0.00953,-0.0349 -0.01905,-0.0746 -0.00953,0.0397 -0.020638,0.0746 -0.00953,0.0349 -0.01905,0.0651 l -0.5064125,1.56845 H 6.7241018 Z m 4.3269937,1.95104 q 0.123825,0 0.220662,-0.0413 0.09842,-0.0413 0.1651,-0.11589 0.06826,-0.0746 0.103188,-0.18098 0.03651,-0.10636 0.03651,-0.23812 v -1.37478 h 0.427038 v 1.37478 q 0,0.20479 -0.06668,0.37941 -0.06509,0.17304 -0.188913,0.30004 -0.123825,0.12541 -0.300037,0.19685 -0.176213,0.0699 -0.396875,0.0699 -0.220663,0 -0.3968754,-0.0699 -0.1762125,-0.0714 -0.3000375,-0.19685 -0.1222375,-0.127 -0.1889125,-0.30004 -0.065087,-0.17462 -0.065087,-0.37941 v -1.37478 h 0.4270375 v 1.37319 q 0,0.13176 0.034925,0.23813 0.036513,0.10636 0.1031875,0.18256 0.066675,0.0746 0.1635129,0.11589 0.09842,0.0413 0.22225,0.0413 z m 1.479022,-1.95104 q 0.02858,0 0.04763,0.003 0.01905,0.002 0.03334,0.01 0.01587,0.006 0.03016,0.0206 0.01429,0.0127 0.03175,0.0349 l 1.204913,1.53511 q -0.0063,-0.0556 -0.0095,-0.10795 -0.0016,-0.054 -0.0016,-0.10001 v -1.39542 h 0.376238 v 2.29553 H 13.30958 q -0.0508,0 -0.08414,-0.0159 -0.03334,-0.0159 -0.06509,-0.0572 l -1.20015,-1.52876 q 0.0048,0.0508 0.0063,0.1016 0.0032,0.0492 0.0032,0.0905 v 1.4097 h -0.376237 v -2.29553 h 0.223837 z m 3.098272,1.9812 q 0.144462,0 0.250825,-0.0254 0.10795,-0.027 0.204787,-0.073 v -0.41751 h -0.287337 q -0.04127,0 -0.06509,-0.0222 -0.02381,-0.0238 -0.02381,-0.0572 v -0.2413 h 0.763587 v 0.92869 q -0.08731,0.0635 -0.182562,0.11112 -0.09366,0.046 -0.201613,0.0762 -0.106362,0.0302 -0.2286,0.0445 -0.122237,0.0159 -0.263525,0.0159 -0.250825,0 -0.461962,-0.0873 -0.211138,-0.0873 -0.365125,-0.24289 -0.153988,-0.15558 -0.2413,-0.37148 -0.08573,-0.2159 -0.08573,-0.47148 0,-0.25877 0.08414,-0.47467 0.08414,-0.2159 0.238125,-0.37147 0.155575,-0.15558 0.376238,-0.2413 0.220662,-0.0857 0.4953,-0.0857 0.280987,0 0.485775,0.0841 0.206375,0.0825 0.34925,0.2159 l -0.123825,0.19368 q -0.03651,0.0587 -0.09684,0.0587 -0.0381,0 -0.07779,-0.0254 -0.0508,-0.0302 -0.104775,-0.0603 -0.05239,-0.0302 -0.117475,-0.0524 -0.0635,-0.0222 -0.144463,-0.0365 -0.07937,-0.0143 -0.18415,-0.0143 -0.169862,0 -0.307975,0.0572 -0.136525,0.0572 -0.233362,0.16351 -0.09684,0.10637 -0.149225,0.25559 -0.05239,0.14923 -0.05239,0.33338 0,0.19843 0.05556,0.35401 0.05556,0.15399 0.155575,0.26035 0.100012,0.10636 0.238125,0.16351 0.138112,0.0556 0.301625,0.0556 z"
         id="text13"
         style="font-weight:bold;font-size:3.175px;line-height:0.95;font-family:Lato;-inkscape-font-specification:'Lato, Bold';text-align:center;letter-spacing:-0.132292px;text-anchor:middle;fill:#dadada;stroke-width:0.264583"
         inkscape:label="probabilistic"
         aria-label="SWUNG" />
      <path
         d="m 6.5113609,179.85465 v 0.89694 H 6.0843234 v -2.29553 h 0.7000875 q 0.2349499,0 0.4016374,0.0492 0.168275,0.0476 0.2746375,0.13494 0.10795,0.0873 0.1571625,0.20955 0.0508,0.12065 0.0508,0.2667 0,0.11589 -0.034925,0.21908 -0.033338,0.10318 -0.098425,0.18732 -0.0635,0.0841 -0.15875,0.14764 -0.093662,0.0635 -0.2143125,0.1016 0.080963,0.046 0.1397,0.13176 l 0.574675,0.84773 h -0.384175 q -0.055562,0 -0.09525,-0.0222 -0.0381,-0.0222 -0.065087,-0.0635 l -0.4825999,-0.73501 q -0.026987,-0.0413 -0.060325,-0.0587 -0.03175,-0.0175 -0.09525,-0.0175 z m 0,-0.30639 h 0.2667 q 0.12065,0 0.2095499,-0.0302 0.090488,-0.0302 0.1476375,-0.0825 0.058738,-0.054 0.087313,-0.127 0.028575,-0.073 0.028575,-0.16034 0,-0.17462 -0.1158875,-0.26829 -0.1143,-0.0937 -0.3508374,-0.0937 h -0.27305 z m 3.5237221,1.20333 H 9.7048833 q -0.055563,0 -0.092075,-0.027 -0.034925,-0.0286 -0.0508,-0.0699 l -0.17145,-0.46831 H 8.4396459 l -0.17145,0.46831 q -0.0127,0.0365 -0.0508,0.0667 -0.036512,0.0302 -0.090488,0.0302 H 7.7951209 l 0.9017,-2.29553 h 0.4365625 z m -1.4858996,-0.86678 h 0.7318374 l -0.2793999,-0.76359 q -0.01905,-0.0508 -0.042863,-0.11906 -0.022225,-0.0699 -0.04445,-0.15081 -0.022225,0.081 -0.04445,0.15081 -0.020637,0.0699 -0.041275,0.12224 z m 2.7426676,-0.0857 q 0.02699,0.0508 0.04921,0.10636 0.02381,0.054 0.04604,0.10954 0.02223,-0.0572 0.04604,-0.11272 0.02381,-0.0556 0.0508,-0.10636 l 0.679449,-1.27159 q 0.0127,-0.0238 0.0254,-0.0381 0.01429,-0.0143 0.03016,-0.0206 0.01746,-0.006 0.0381,-0.008 0.02064,-0.002 0.04921,-0.002 h 0.322263 v 2.29553 h -0.376238 v -1.48273 q 0,-0.0413 0.0016,-0.0905 0.0032,-0.0492 0.0079,-0.10001 l -0.693737,1.30175 q -0.02381,0.0445 -0.06191,0.0699 -0.0381,0.0238 -0.0889,0.0238 h -0.05874 q -0.0508,0 -0.0889,-0.0238 -0.0381,-0.0254 -0.06191,-0.0699 l -0.703263,-1.30651 q 0.0064,0.0524 0.0079,0.10319 0.0032,0.0492 0.0032,0.0921 v 1.48273 h -0.376238 v -2.29553 h 0.322263 q 0.02858,0 0.04921,0.002 0.02064,0.002 0.03651,0.008 0.01746,0.006 0.03175,0.0206 0.01429,0.0143 0.02699,0.0381 l 0.6858,1.27477 z m 2.109259,0.14446 v 0.80804 h -0.427038 v -2.29553 h 0.747713 q 0.230187,0 0.398462,0.054 0.168275,0.054 0.277813,0.15081 0.109537,0.0968 0.161925,0.23177 0.05239,0.13494 0.05239,0.29528 0,0.16669 -0.05556,0.30639 -0.05556,0.13811 -0.166688,0.23812 -0.111125,0.10001 -0.277812,0.15558 -0.166688,0.0556 -0.390525,0.0556 z m 0,-0.33338 h 0.320675 q 0.117475,0 0.204787,-0.0286 0.08731,-0.0302 0.144463,-0.0841 0.05715,-0.0556 0.08573,-0.13335 0.02858,-0.0794 0.02858,-0.17621 0,-0.0921 -0.02858,-0.16669 -0.02858,-0.0746 -0.08573,-0.127 -0.05715,-0.0524 -0.144463,-0.0794 -0.08731,-0.0286 -0.204787,-0.0286 H 13.40111 Z"
         id="text14"
         style="font-weight:bold;font-size:3.175px;line-height:0.95;font-family:Lato;-inkscape-font-specification:'Lato, Bold';text-align:center;letter-spacing:-0.132292px;text-anchor:middle;fill:#a68af9;stroke-width:0.264583"
         inkscape:label="ramp"
         aria-label="RAMP" />
      <path
         d="m 6.412275,213.43354 q -0.014288,0.0238 -0.030163,0.0365 -0.015875,0.0111 -0.041275,0.0111 -0.026987,0 -0.0635,-0.027 -0.034925,-0.027 -0.090488,-0.0587 -0.053975,-0.0333 -0.1317625,-0.0603 -0.0762,-0.027 -0.1857375,-0.027 -0.1031875,0 -0.1825625,0.0286 -0.079375,0.027 -0.13335,0.0746 -0.052388,0.0476 -0.079375,0.11271 -0.026987,0.0635 -0.026987,0.13811 0,0.0952 0.046037,0.15875 0.047625,0.0619 0.123825,0.10636 0.077788,0.0445 0.174625,0.0778 0.098425,0.0317 0.200025,0.0667 0.1031875,0.0349 0.200025,0.0794 0.098425,0.0429 0.174625,0.10954 0.077787,0.0667 0.123825,0.16351 0.047625,0.0968 0.047625,0.23813 0,0.14922 -0.0508,0.28098 -0.0508,0.13018 -0.149225,0.22702 -0.096838,0.0968 -0.2397125,0.1524 -0.1412875,0.0556 -0.3222625,0.0556 -0.2206625,0 -0.403225,-0.0794 -0.180975,-0.081 -0.3095625,-0.21748 l 0.0889,-0.14605 q 0.0127,-0.0175 0.030163,-0.0286 0.01905,-0.0127 0.041275,-0.0127 0.033338,0 0.0762,0.0365 0.042863,0.0349 0.1063625,0.0778 0.065087,0.0429 0.155575,0.0794 0.092075,0.0349 0.2238375,0.0349 0.1095375,0 0.1952625,-0.0302 0.085725,-0.0302 0.1444625,-0.0841 0.060325,-0.0556 0.092075,-0.13176 0.03175,-0.0762 0.03175,-0.16986 0,-0.10319 -0.047625,-0.16828 -0.046037,-0.0667 -0.1222375,-0.11112 -0.0762,-0.0445 -0.174625,-0.0746 -0.096838,-0.0317 -0.200025,-0.0635 -0.1016,-0.0333 -0.200025,-0.0762 -0.096838,-0.0429 -0.1730375,-0.11112 -0.0762,-0.0683 -0.123825,-0.16986 -0.046038,-0.10319 -0.046038,-0.254 0,-0.12065 0.046038,-0.23337 0.047625,-0.11271 0.136525,-0.20002 0.0889,-0.0873 0.219075,-0.1397 0.1317625,-0.0524 0.301625,-0.0524 0.1905,0 0.3476625,0.0603 0.1571625,0.0603 0.2746375,0.17462 z m 0.1312351,-0.3556 h 0.2555875 q 0.041275,0 0.068263,0.0206 0.026987,0.0206 0.036512,0.0524 l 0.4699,1.58115 q 0.0127,0.0429 0.022225,0.0921 0.011112,0.0492 0.020637,0.10319 0.011113,-0.054 0.022225,-0.10319 0.011112,-0.0508 0.0254,-0.0921 l 0.5349875,-1.58115 q 0.00953,-0.027 0.036512,-0.0492 0.028575,-0.0238 0.068263,-0.0238 h 0.0889 q 0.041275,0 0.066675,0.0206 0.026988,0.0206 0.0381,0.0524 l 0.5318125,1.58115 q 0.028575,0.0825 0.0508,0.18891 0.00953,-0.0524 0.017462,-0.10001 0.00794,-0.0476 0.020637,-0.0889 l 0.4714875,-1.58115 q 0.00794,-0.0286 0.034925,-0.0508 0.028575,-0.0222 0.068262,-0.0222 h 0.2397125 l -0.7096125,2.27489 h -0.276225 l -0.5762625,-1.73514 q -0.017463,-0.0492 -0.03175,-0.1143 -0.00794,0.0318 -0.015875,0.0619 -0.00635,0.0286 -0.014288,0.0524 l -0.5794375,1.73514 h -0.276225 z m 3.7221549,2.27489 H 9.9576901 v -2.27489 h 0.3079749 z m 0.636056,-2.27489 q 0.04128,0 0.06033,0.0111 0.02064,0.01 0.04604,0.0413 l 1.317625,1.7145 q -0.0048,-0.0413 -0.0064,-0.0794 -0.0016,-0.0397 -0.0016,-0.0762 v -1.61131 h 0.269875 v 2.27489 h -0.155575 q -0.03651,0 -0.06191,-0.0127 -0.02381,-0.0127 -0.04763,-0.0429 l -1.316037,-1.71292 q 0.0032,0.0397 0.0048,0.0778 0.0016,0.0381 0.0016,0.0699 v 1.62084 h -0.269875 v -2.27489 h 0.15875 z m 3.123672,2.05105 q 0.09208,0 0.168275,-0.008 0.07779,-0.01 0.14605,-0.027 0.06826,-0.0175 0.128587,-0.0413 0.06032,-0.0254 0.12065,-0.0571 v -0.50165 H 14.23653 q -0.03016,0 -0.04921,-0.0175 -0.01746,-0.0175 -0.01746,-0.0429 v -0.17463 h 0.6985 v 0.87313 q -0.08573,0.0619 -0.179387,0.10795 -0.09207,0.046 -0.198438,0.0778 -0.104775,0.0302 -0.225425,0.0444 -0.12065,0.0159 -0.261937,0.0159 -0.24765,0 -0.454025,-0.0841 -0.206375,-0.0857 -0.3556,-0.23812 -0.149225,-0.15399 -0.233363,-0.3683 -0.08255,-0.21432 -0.08255,-0.47149 0,-0.26035 0.08096,-0.47466 0.08255,-0.21432 0.233362,-0.36672 0.1524,-0.15398 0.366713,-0.23812 0.2159,-0.0841 0.4826,-0.0841 0.134937,0 0.250825,0.0206 0.115887,0.019 0.214312,0.0571 0.100013,0.0365 0.18415,0.0905 0.08414,0.0524 0.157163,0.11906 l -0.08731,0.1397 q -0.02699,0.0429 -0.06985,0.0429 -0.0254,0 -0.05556,-0.0175 -0.03969,-0.0222 -0.0889,-0.054 -0.04921,-0.0317 -0.12065,-0.0603 -0.06985,-0.0302 -0.166688,-0.0508 -0.09525,-0.0206 -0.227012,-0.0206 -0.192088,0 -0.347663,0.0635 -0.155575,0.0619 -0.265112,0.17939 -0.109538,0.11589 -0.168275,0.28257 -0.05874,0.1651 -0.05874,0.37148 0,0.2159 0.06033,0.38576 0.06191,0.16828 0.173038,0.28575 0.111125,0.11748 0.263525,0.17939 0.1524,0.0619 0.33655,0.0619 z"
         id="text15"
         style="font-size:3.175px;line-height:0.95;font-family:Lato;-inkscape-font-specification:'Lato, Normal';text-align:center;letter-spacing:-0.132292px;text-anchor:middle;fill:#dadada;stroke-width:0.264583"
         inkscape:label="pitch"
         aria-label="SWING" />
      <path
         d="m 4.5278691,286.81276 v 0.77312 h -0.536575 v -2.31299 h 0.815975 q 0.244475,0 0.4191,0.0587 0.1762125,0.0571 0.288925,0.15875 0.1142999,0.1016 0.1682749,0.23971 0.053975,0.13811 0.053975,0.29845 0,0.17304 -0.055562,0.3175 -0.055562,0.14446 -0.1698624,0.24765 -0.1143,0.10319 -0.2905125,0.16192 -0.174625,0.0572 -0.4143375,0.0572 z m 0,-0.40481 h 0.2794 q 0.20955,0 0.301625,-0.10001 0.092075,-0.10001 0.092075,-0.2794 0,-0.0794 -0.023813,-0.14446 -0.023813,-0.0651 -0.073025,-0.11113 -0.047625,-0.0476 -0.1222375,-0.073 -0.073025,-0.0254 -0.174625,-0.0254 h -0.2794 z m 3.3760844,1.17793 h -0.53975 v -0.9779 h -0.9398 v 0.9779 h -0.53975 v -2.31299 h 0.53975 v 0.96679 h 0.9398 v -0.96679 h 0.53975 z m 2.4013595,0 H 9.8893884 q -0.06985,0 -0.1158875,-0.0317 -0.04445,-0.0333 -0.061913,-0.0841 l -0.136525,-0.40323 h -0.879475 l -0.136525,0.40323 q -0.015875,0.0444 -0.061913,0.081 -0.046037,0.0349 -0.1127125,0.0349 h -0.4191 l 0.89535,-2.31299 h 0.549275 z m -1.4858996,-0.88424 h 0.631825 l -0.212725,-0.63341 q -0.020638,-0.0603 -0.049213,-0.14129 -0.026987,-0.0826 -0.053975,-0.1778 -0.0254,0.0968 -0.052388,0.17939 -0.026988,0.0825 -0.0508,0.14287 z m 2.8299816,-0.95885 q -0.02381,0.0381 -0.0508,0.0571 -0.0254,0.019 -0.06668,0.019 -0.03651,0 -0.07937,-0.0222 -0.04128,-0.0238 -0.09525,-0.0524 -0.05239,-0.0286 -0.12065,-0.0508 -0.06826,-0.0238 -0.155575,-0.0238 -0.150813,0 -0.225425,0.0651 -0.07303,0.0635 -0.07303,0.17304 0,0.0698 0.04445,0.11589 0.04445,0.046 0.115887,0.0794 0.07302,0.0333 0.1651,0.0619 0.09366,0.027 0.1905,0.0619 0.09684,0.0333 0.188913,0.0794 0.09366,0.046 0.1651,0.11748 0.07302,0.0714 0.117475,0.17462 0.04445,0.1016 0.04445,0.24606 0,0.16034 -0.05556,0.30004 -0.05556,0.1397 -0.161925,0.24448 -0.104775,0.10318 -0.26035,0.16351 -0.153987,0.0587 -0.350837,0.0587 -0.10795,0 -0.220663,-0.0222 -0.111125,-0.0222 -0.2159,-0.0619 -0.104775,-0.0413 -0.19685,-0.0968 -0.09207,-0.0556 -0.160337,-0.12382 l 0.15875,-0.25083 q 0.01746,-0.0286 0.04921,-0.046 0.03175,-0.0175 0.06826,-0.0175 0.04763,0 0.09525,0.0302 0.04921,0.0302 0.109537,0.0667 0.06191,0.0365 0.141288,0.0667 0.07937,0.0302 0.187325,0.0302 0.14605,0 0.227012,-0.0635 0.08096,-0.0651 0.08096,-0.20479 0,-0.081 -0.04445,-0.13176 -0.04445,-0.0508 -0.117475,-0.0841 -0.07144,-0.0333 -0.163513,-0.0587 -0.09208,-0.0254 -0.188912,-0.0556 -0.09684,-0.0317 -0.188913,-0.0762 -0.09208,-0.046 -0.1651,-0.11906 -0.07144,-0.0746 -0.115887,-0.18415 -0.04445,-0.11113 -0.04445,-0.27305 0,-0.13018 0.05239,-0.254 0.05239,-0.12383 0.153988,-0.22067 0.1016,-0.0968 0.249237,-0.15398 0.147638,-0.0587 0.338138,-0.0587 0.106362,0 0.206375,0.0175 0.1016,0.0159 0.192087,0.0492 0.09049,0.0317 0.168275,0.0778 0.07937,0.0444 0.141288,0.1016 z m 2.582332,0.6858 q 0,0.25082 -0.08731,0.46672 -0.08573,0.2159 -0.242888,0.37624 -0.157162,0.15875 -0.379412,0.24924 -0.220663,0.0905 -0.490538,0.0905 -0.269875,0 -0.492125,-0.0905 -0.22225,-0.0905 -0.381,-0.24924 -0.157162,-0.16034 -0.244475,-0.37624 -0.08572,-0.2159 -0.08572,-0.46672 0,-0.25083 0.08572,-0.46673 0.08731,-0.2159 0.244475,-0.37465 0.15875,-0.15875 0.381,-0.24923 0.22225,-0.0905 0.492125,-0.0905 0.269875,0 0.490538,0.0921 0.22225,0.0905 0.379412,0.24924 0.157163,0.15875 0.242888,0.37465 0.08731,0.2159 0.08731,0.46514 z m -0.549275,0 q 0,-0.17145 -0.04445,-0.30798 -0.04445,-0.13811 -0.128587,-0.23336 -0.08255,-0.0953 -0.2032,-0.14605 -0.12065,-0.0508 -0.274638,-0.0508 -0.155575,0 -0.277812,0.0508 -0.12065,0.0508 -0.204788,0.14605 -0.08255,0.0953 -0.127,0.23336 -0.04445,0.13653 -0.04445,0.30798 0,0.17304 0.04445,0.31115 0.04445,0.13652 0.127,0.23177 0.08414,0.0952 0.204788,0.14605 0.122237,0.0492 0.277812,0.0492 0.153988,0 0.274638,-0.0492 0.12065,-0.0508 0.2032,-0.14605 0.08414,-0.0953 0.128587,-0.23177 0.04445,-0.13811 0.04445,-0.31115 z m 1.210731,0.30162 v 0.85567 h -0.536575 v -2.31299 h 0.752475 q 0.250825,0 0.427037,0.0524 0.1778,0.0508 0.288925,0.14287 0.112713,0.0921 0.163513,0.21749 0.0508,0.12541 0.0508,0.27305 0,0.11271 -0.03016,0.21272 -0.03016,0.10002 -0.09049,0.18574 -0.05874,0.0841 -0.14605,0.15081 -0.08573,0.0667 -0.198438,0.10954 0.05397,0.027 0.100013,0.0667 0.04763,0.0397 0.08255,0.0968 l 0.492125,0.80487 h -0.485775 q -0.134938,0 -0.193675,-0.1016 l -0.384175,-0.67152 q -0.0254,-0.0445 -0.06033,-0.0635 -0.03334,-0.019 -0.09525,-0.019 z m 0,-0.36988 h 0.2159 q 0.109537,0 0.185737,-0.027 0.07779,-0.0286 0.127,-0.0778 0.04921,-0.0492 0.07144,-0.1143 0.02222,-0.0667 0.02222,-0.14287 0,-0.1524 -0.100013,-0.23813 -0.09842,-0.0857 -0.306387,-0.0857 h -0.2159 z"
         id="text16"
         style="font-weight:900;font-size:3.175px;line-height:0.95;font-family:Lato;-inkscape-font-specification:'Lato, Heavy';text-align:center;letter-spacing:-0.132292px;text-anchor:middle;fill:#a68af9;stroke-width:0.264583"
         inkscape:label="phasor"
         aria-label="PHASOR" />
      <path
         d="m 6.961192,288.72436 q -0.023813,0.0381 -0.0508,0.0572 -0.0254,0.019 -0.066675,0.019 -0.036512,0 -0.079375,-0.0222 -0.041275,-0.0238 -0.09525,-0.0524 -0.052388,-0.0286 -0.12065,-0.0508 -0.068262,-0.0238 -0.155575,-0.0238 -0.1508125,0 -0.225425,0.0651 -0.073025,0.0635 -0.073025,0.17304 0,0.0699 0.04445,0.11588 0.04445,0.046 0.1158875,0.0794 0.073025,0.0333 0.1651,0.0619 0.093663,0.027 0.1905,0.0619 0.096838,0.0333 0.1889125,0.0794 0.093662,0.046 0.1651,0.11747 0.073025,0.0714 0.117475,0.17463 0.04445,0.1016 0.04445,0.24606 0,0.16034 -0.055563,0.30004 -0.055562,0.1397 -0.161925,0.24447 -0.104775,0.10319 -0.26035,0.16352 -0.1539875,0.0587 -0.3508375,0.0587 -0.10795,0 -0.2206625,-0.0222 -0.111125,-0.0222 -0.2159,-0.0619 -0.104775,-0.0413 -0.19685,-0.0968 -0.092075,-0.0556 -0.1603375,-0.12383 l 0.15875,-0.25082 q 0.017462,-0.0286 0.049213,-0.046 0.03175,-0.0175 0.068262,-0.0175 0.047625,0 0.09525,0.0302 0.049213,0.0302 0.1095375,0.0667 0.061913,0.0365 0.1412875,0.0667 0.079375,0.0302 0.187325,0.0302 0.14605,0 0.2270125,-0.0635 0.080963,-0.0651 0.080963,-0.20478 0,-0.081 -0.04445,-0.13177 -0.04445,-0.0508 -0.117475,-0.0841 -0.071438,-0.0333 -0.1635125,-0.0587 -0.092075,-0.0254 -0.1889125,-0.0556 -0.096837,-0.0318 -0.1889125,-0.0762 -0.092075,-0.046 -0.1651,-0.11907 -0.071438,-0.0746 -0.1158875,-0.18415 -0.04445,-0.11112 -0.04445,-0.27305 0,-0.13017 0.052388,-0.254 0.052388,-0.12382 0.1539875,-0.22066 0.1016,-0.0968 0.2492375,-0.15399 0.1476375,-0.0587 0.3381375,-0.0587 0.1063625,0 0.206375,0.0175 0.1016,0.0159 0.1920875,0.0492 0.090488,0.0317 0.168275,0.0778 0.079375,0.0445 0.1412875,0.1016 z m 0.8360824,1.06997 v 0.77311 h -0.536575 v -2.31298 h 0.815975 q 0.244475,0 0.4191,0.0587 0.1762125,0.0571 0.288925,0.15875 0.1143,0.1016 0.168275,0.23972 0.053975,0.13811 0.053975,0.29845 0,0.17303 -0.055563,0.3175 -0.055562,0.14446 -0.1698625,0.24765 -0.1143,0.10318 -0.2905125,0.16192 -0.174625,0.0571 -0.4143375,0.0571 z m 0,-0.40481 h 0.2794 q 0.20955,0 0.301625,-0.10001 0.092075,-0.10002 0.092075,-0.2794 0,-0.0794 -0.023813,-0.14447 -0.023813,-0.0651 -0.073025,-0.11112 -0.047625,-0.0476 -0.1222375,-0.073 -0.073025,-0.0254 -0.174625,-0.0254 h -0.2794 z m 3.2395626,1.17792 h -0.415925 q -0.06985,0 -0.115888,-0.0317 -0.04445,-0.0333 -0.06191,-0.0841 l -0.136525,-0.40323 H 9.4271117 l -0.1365249,0.40323 q -0.015875,0.0445 -0.061913,0.081 -0.046038,0.0349 -0.1127125,0.0349 h -0.4191 l 0.8953499,-2.31298 h 0.5492753 z m -1.4859003,-0.88423 h 0.6318253 l -0.2127253,-0.63342 q -0.020637,-0.0603 -0.049212,-0.14128 -0.026988,-0.0825 -0.053975,-0.1778 -0.0254,0.0968 -0.052388,0.17938 -0.026988,0.0825 -0.0508,0.14288 z m 2.9998413,0.28575 q 0.01905,0 0.0381,0.008 0.01905,0.006 0.03651,0.0238 l 0.212725,0.22383 q -0.1397,0.18257 -0.350838,0.27623 -0.20955,0.0921 -0.496887,0.0921 -0.263525,0 -0.473075,-0.0889 -0.207963,-0.0905 -0.354013,-0.24765 -0.144462,-0.15875 -0.22225,-0.37465 -0.07779,-0.21748 -0.07779,-0.47148 0,-0.25877 0.0889,-0.47467 0.0889,-0.21748 0.24765,-0.37465 0.160337,-0.15716 0.382587,-0.24447 0.22225,-0.0873 0.490538,-0.0873 0.130175,0 0.244475,0.0238 0.115887,0.0222 0.2159,0.0635 0.100012,0.0397 0.18415,0.0968 0.08414,0.0556 0.149225,0.12382 l -0.180975,0.24289 q -0.01746,0.0222 -0.04127,0.0413 -0.02381,0.0175 -0.06668,0.0175 -0.02858,0 -0.05398,-0.0127 -0.0254,-0.0127 -0.05397,-0.0302 -0.02858,-0.019 -0.0635,-0.0397 -0.03334,-0.0222 -0.08096,-0.0397 -0.04604,-0.0191 -0.109537,-0.0318 -0.06191,-0.0127 -0.14605,-0.0127 -0.14605,0 -0.2667,0.0524 -0.12065,0.0508 -0.207963,0.14763 -0.08573,0.0953 -0.134937,0.23178 -0.04763,0.13652 -0.04763,0.30639 0,0.1778 0.04763,0.31591 0.04921,0.13811 0.131762,0.23336 0.08414,0.0937 0.195263,0.14288 0.111125,0.0492 0.238125,0.0492 0.07302,0 0.13335,-0.006 0.06033,-0.008 0.111125,-0.0254 0.05239,-0.0175 0.09843,-0.0445 0.04763,-0.0286 0.09525,-0.0698 0.01905,-0.0159 0.04127,-0.0254 0.02223,-0.0111 0.04604,-0.0111 z m 1.888595,-1.7145 v 0.41275 h -0.949325 v 0.53975 h 0.727075 v 0.39687 h -0.727075 v 0.55086 h 0.949325 v 0.41275 h -1.489075 v -2.31298 z"
         id="text17"
         style="font-weight:900;font-size:3.175px;line-height:0.95;font-family:Lato;-inkscape-font-specification:'Lato, Heavy';text-align:center;letter-spacing:-0.132292px;text-anchor:middle;fill:#dadada;stroke-width:0.264583"
         inkscape:label="space"
         aria-label="SPACE" />
      <path
         d="m 9.7371495,238.1506 q 0.0254,0 0.046038,0.0206 l 0.12065,0.13176 q -0.1397,0.16192 -0.339725,0.25241 -0.1984375,0.0905 -0.479425,0.0905 -0.2460625,0 -0.4460875,-0.0841 -0.200025,-0.0857 -0.3413125,-0.23812 -0.1412875,-0.15399 -0.219075,-0.3683 -0.077788,-0.21432 -0.077788,-0.47149 0,-0.25718 0.08255,-0.47149 0.084137,-0.21431 0.23495,-0.3683 0.1508125,-0.15399 0.3603625,-0.23812 0.2111375,-0.0857 0.4651375,-0.0857 0.250825,0 0.4318,0.0778 0.1825625,0.0778 0.32385,0.21114 l -0.1000125,0.14128 q -0.011112,0.0159 -0.0254,0.027 -0.014288,0.01 -0.041275,0.01 -0.020637,0 -0.04445,-0.0143 -0.022225,-0.0159 -0.053975,-0.0381 -0.03175,-0.0222 -0.074613,-0.0476 -0.042863,-0.0254 -0.1016,-0.0476 -0.058737,-0.0222 -0.136525,-0.0365 -0.077787,-0.0159 -0.1793875,-0.0159 -0.1825625,0 -0.3349625,0.0635 -0.1508125,0.0619 -0.26035,0.1778 -0.1095375,0.11589 -0.17145,0.28258 -0.060325,0.16668 -0.060325,0.37306 0,0.21272 0.060325,0.37941 0.061913,0.16669 0.1666875,0.28258 0.1063625,0.1143 0.250825,0.17462 0.1444625,0.0603 0.31115,0.0603 0.1016,0 0.1825625,-0.0111 0.080963,-0.0127 0.149225,-0.0381 0.06985,-0.0254 0.1285875,-0.0635 0.060325,-0.0397 0.12065,-0.0937 0.026988,-0.0238 0.052388,-0.0238 z m 0.1756814,-1.80499 h 0.2460621 q 0.04127,0 0.06668,0.0206 0.0254,0.0206 0.0381,0.0524 l 0.642938,1.60496 q 0.02223,0.054 0.03969,0.11747 0.01905,0.0635 0.03651,0.13177 0.01429,-0.0683 0.03016,-0.13177 0.01746,-0.0635 0.03969,-0.11747 l 0.639762,-1.60496 q 0.01111,-0.027 0.0381,-0.0492 0.02699,-0.0238 0.06668,-0.0238 h 0.24765 l -0.9271,2.27489 h -0.277812 z"
         id="text18"
         style="font-size:3.175px;line-height:0.95;font-family:Lato;-inkscape-font-specification:'Lato, Normal';text-align:center;letter-spacing:-0.132292px;text-anchor:middle;fill:#dadada;stroke-width:0.264583"
         inkscape:label="1voct"
         aria-label="CV" />
      <path
         d="m 6.3589962,256.82744 v 0.94932 H 6.0526087 v -2.27488 h 0.6429375 q 0.2159,0 0.3730625,0.0445 0.1571625,0.0429 0.2587625,0.12541 0.1031875,0.0825 0.1524,0.20002 0.049213,0.11589 0.049213,0.26035 0,0.12065 -0.0381,0.22543 -0.0381,0.10477 -0.111125,0.18891 -0.071438,0.0826 -0.1762125,0.14129 -0.1031875,0.0587 -0.23495,0.0889 0.05715,0.0333 0.1016,0.0968 l 0.663575,0.90328 h -0.27305 q -0.084137,0 -0.123825,-0.0651 l -0.59055,-0.8128 q -0.026987,-0.0381 -0.058737,-0.054 -0.03175,-0.0175 -0.09525,-0.0175 z m 0,-0.22384 h 0.3222625 q 0.1349375,0 0.2365375,-0.0317 0.1031875,-0.0333 0.17145,-0.0921 0.06985,-0.0603 0.104775,-0.14288 0.034925,-0.0826 0.034925,-0.18256 0,-0.2032 -0.1349375,-0.30639 -0.13335,-0.10319 -0.3984625,-0.10319 h -0.33655 z m 3.44593,1.17316 h -0.238125 q -0.041275,0 -0.066675,-0.0206 -0.0254,-0.0206 -0.0381,-0.0524 l -0.212725,-0.54928 H 8.2285387 l -0.212725,0.54928 q -0.011113,0.0286 -0.0381,0.0508 -0.026987,0.0222 -0.066675,0.0222 h -0.238125 l 0.9096375,-2.27488 H 8.8952887 Z M 8.3142637,256.93221 H 9.1635762 L 8.8063887,256.0067 q -0.034925,-0.0857 -0.068262,-0.21431 -0.017463,0.0651 -0.034925,0.12065 -0.015875,0.054 -0.03175,0.0952 z m 2.7648963,0.0222 q 0.02223,0.0381 0.0381,0.081 0.01746,0.0413 0.03334,0.0841 0.01587,-0.0444 0.03334,-0.0841 0.01746,-0.0413 0.03969,-0.0825 l 0.769937,-1.39859 q 0.02064,-0.0365 0.04286,-0.0445 0.02223,-0.008 0.0635,-0.008 h 0.227012 v 2.27488 H 12.05706 v -1.67163 q 0,-0.0333 0.0016,-0.0714 0.0016,-0.0381 0.0048,-0.0778 l -0.779462,1.4224 q -0.03969,0.0714 -0.111125,0.0714 h -0.04445 q -0.07144,0 -0.111125,-0.0714 l -0.796925,-1.42716 q 0.0048,0.0413 0.0063,0.081 0.0032,0.0397 0.0032,0.073 v 1.67163 H 9.9599726 v -2.27488 h 0.2270124 q 0.04128,0 0.0635,0.008 0.02223,0.008 0.04286,0.0445 l 0.785812,1.40018 z m 2.007659,-0.0286 v 0.8509 h -0.306388 v -2.27488 h 0.671513 q 0.2159,0 0.37465,0.0508 0.160337,0.0492 0.265112,0.14128 0.104775,0.0921 0.155575,0.22225 0.05239,0.13018 0.05239,0.29052 0,0.15875 -0.05556,0.29051 -0.05556,0.13176 -0.163512,0.22701 -0.106363,0.0953 -0.265113,0.14923 -0.15875,0.0524 -0.363537,0.0524 z m 0,-0.24447 h 0.365125 q 0.131762,0 0.231775,-0.0349 0.1016,-0.0349 0.169862,-0.0968 0.06826,-0.0635 0.103188,-0.15082 0.03493,-0.0873 0.03493,-0.19208 0,-0.21749 -0.134938,-0.33973 -0.13335,-0.12224 -0.404812,-0.12224 h -0.365125 z"
         id="text19"
         style="font-size:3.175px;line-height:0.95;font-family:Lato;-inkscape-font-specification:'Lato, Normal';text-align:center;letter-spacing:-0.132292px;text-anchor:middle;fill:#dadada;stroke-width:0.264583"
         inkscape:label="1voct"
         aria-label="RAMP" />
      <path
         d="m 1.2539033,279.0594 v 0.94933 H 0.94751579 v -2.27489 H 1.5904533 q 0.2159,0 0.3730625,0.0445 0.1571625,0.0429 0.2587625,0.12541 0.1031875,0.0825 0.1524,0.20003 0.049213,0.11589 0.049213,0.26035 0,0.12065 -0.0381,0.22542 -0.0381,0.10478 -0.111125,0.18892 -0.071438,0.0826 -0.1762125,0.14128 -0.1031875,0.0587 -0.23495,0.0889 0.05715,0.0333 0.1016,0.0968 l 0.663575,0.90329 h -0.27305 q -0.084137,0 -0.123825,-0.0651 l -0.59055,-0.8128 q -0.026987,-0.0381 -0.058738,-0.054 -0.03175,-0.0175 -0.09525,-0.0175 z m 0,-0.22383 h 0.3222625 q 0.1349375,0 0.2365375,-0.0318 0.1031875,-0.0333 0.17145,-0.0921 0.06985,-0.0603 0.104775,-0.14287 0.034925,-0.0826 0.034925,-0.18257 0,-0.2032 -0.1349375,-0.30638 -0.13335,-0.10319 -0.3984625,-0.10319 h -0.33655 z m 3.3665549,1.17316 H 4.3823333 q -0.041275,0 -0.066675,-0.0206 -0.0254,-0.0206 -0.0381,-0.0524 l -0.212725,-0.54927 H 3.0440708 l -0.212725,0.54927 q -0.011112,0.0286 -0.0381,0.0508 -0.026987,0.0222 -0.066675,0.0222 h -0.238125 l 0.9096375,-2.27489 h 0.3127375 z m -1.4906624,-0.84455 h 0.8493125 l -0.3571875,-0.92551 q -0.034925,-0.0857 -0.068262,-0.21432 -0.017463,0.0651 -0.034925,0.12065 -0.015875,0.054 -0.03175,0.0953 z m 2.6855215,0.0222 q 0.022225,0.0381 0.0381,0.081 0.017462,0.0413 0.033338,0.0841 0.015875,-0.0444 0.033338,-0.0841 0.017462,-0.0413 0.039687,-0.0826 l 0.7699375,-1.39859 q 0.020638,-0.0365 0.042863,-0.0444 0.022225,-0.008 0.0635,-0.008 h 0.2270125 v 2.27489 h -0.269875 v -1.67164 q 0,-0.0333 0.00159,-0.0714 0.00159,-0.0381 0.00476,-0.0778 l -0.7794625,1.4224 q -0.039688,0.0714 -0.111125,0.0714 h -0.04445 q -0.071438,0 -0.111125,-0.0714 l -0.796925,-1.42717 q 0.00476,0.0413 0.00635,0.081 0.00318,0.0397 0.00318,0.073 v 1.67164 h -0.269875 v -2.27489 h 0.2270125 q 0.041275,0 0.0635,0.008 0.022225,0.008 0.042863,0.0444 l 0.7858125,1.40017 z m 1.928283,-0.0286 v 0.8509 H 7.4372128 v -2.27489 h 0.6715125 q 0.2159,0 0.37465,0.0508 0.1603375,0.0492 0.2651124,0.14129 0.104775,0.0921 0.155575,0.22225 0.052388,0.13017 0.052388,0.29051 0,0.15875 -0.055563,0.29051 -0.055563,0.13177 -0.1635125,0.22702 -0.1063624,0.0953 -0.2651124,0.14922 -0.15875,0.0524 -0.3635375,0.0524 z m 0,-0.24448 h 0.365125 q 0.1317625,0 0.231775,-0.0349 0.1016,-0.0349 0.1698625,-0.0968 0.068263,-0.0635 0.1031875,-0.15081 0.034925,-0.0873 0.034925,-0.19209 0,-0.21749 -0.1349375,-0.33972 -0.13335,-0.12224 -0.4048125,-0.12224 h -0.365125 z"
         id="text20"
         style="font-size:3.175px;line-height:0.95;font-family:Lato;-inkscape-font-specification:'Lato, Normal';text-align:center;letter-spacing:-0.211667px;text-anchor:middle;fill:#1e1e1e;stroke-width:0.264583"
         inkscape:label="ramp"
         aria-label="RAMP" />
      <path
         d="m 13.425234,277.75175 v 0.25877 h -0.735013 v 2.01612 h -0.307975 v -2.01612 h -0.738187 v -0.25877 z m 0.529696,1.32557 v 0.94932 h -0.306388 v -2.27489 h 0.642938 q 0.2159,0 0.373062,0.0444 0.157163,0.0429 0.258763,0.12542 0.103187,0.0825 0.1524,0.20002 0.04921,0.11589 0.04921,0.26035 0,0.12065 -0.0381,0.22543 -0.0381,0.10477 -0.111125,0.18891 -0.07144,0.0825 -0.176212,0.14129 -0.103188,0.0587 -0.23495,0.0889 0.05715,0.0333 0.1016,0.0968 l 0.663575,0.90329 h -0.27305 q -0.08414,0 -0.123825,-0.0651 l -0.59055,-0.8128 q -0.02699,-0.0381 -0.05874,-0.054 -0.03175,-0.0175 -0.09525,-0.0175 z m 0,-0.22384 h 0.322262 q 0.134938,0 0.236538,-0.0317 0.103187,-0.0333 0.17145,-0.0921 0.06985,-0.0603 0.104775,-0.14287 0.03492,-0.0825 0.03492,-0.18256 0,-0.2032 -0.134938,-0.30639 -0.13335,-0.10319 -0.398462,-0.10319 h -0.33655 z m 1.939392,1.17316 h -0.307975 v -2.27489 h 0.307975 z m 1.491718,-0.22384 q 0.09207,0 0.168275,-0.008 0.07779,-0.01 0.14605,-0.027 0.06826,-0.0175 0.128588,-0.0413 0.06033,-0.0254 0.12065,-0.0572 v -0.50165 h -0.352425 q -0.03016,0 -0.04921,-0.0175 -0.01746,-0.0175 -0.01746,-0.0429 v -0.17463 h 0.6985 v 0.87313 q -0.08573,0.0619 -0.179388,0.10795 -0.09207,0.046 -0.198437,0.0778 -0.104775,0.0302 -0.225425,0.0445 -0.12065,0.0159 -0.261938,0.0159 -0.24765,0 -0.454025,-0.0841 -0.206375,-0.0857 -0.3556,-0.23812 -0.149225,-0.15399 -0.233362,-0.3683 -0.08255,-0.21431 -0.08255,-0.47149 0,-0.26035 0.08096,-0.47466 0.08255,-0.21431 0.233363,-0.36671 0.1524,-0.15399 0.366712,-0.23813 0.2159,-0.0841 0.4826,-0.0841 0.134938,0 0.250825,0.0206 0.115888,0.019 0.214313,0.0572 0.100012,0.0365 0.18415,0.0905 0.08414,0.0524 0.157162,0.11906 l -0.08731,0.1397 q -0.02699,0.0429 -0.06985,0.0429 -0.0254,0 -0.05556,-0.0175 -0.03969,-0.0222 -0.0889,-0.054 -0.04921,-0.0317 -0.12065,-0.0603 -0.06985,-0.0302 -0.166687,-0.0508 -0.09525,-0.0206 -0.227013,-0.0206 -0.192087,0 -0.347662,0.0635 -0.155575,0.0619 -0.265113,0.17939 -0.109537,0.11589 -0.168275,0.28258 -0.05874,0.1651 -0.05874,0.37147 0,0.2159 0.06032,0.38576 0.06191,0.16828 0.173037,0.28575 0.111125,0.11748 0.263525,0.17939 0.1524,0.0619 0.33655,0.0619 z"
         id="text21"
         style="font-size:3.175px;line-height:0.95;font-family:Lato;-inkscape-font-specification:'Lato, Normal';text-align:center;letter-spacing:-0.132292px;text-anchor:middle;fill:#1e1e1e;stroke-width:0.264583"
         inkscape:label="trig"
         aria-label="TRIG" />
    </g>
  </g>
  <g
     inkscape:groupmode="layer"
     id="layer2"
     inkscape:label="components">
    <circle
       style="display:inline;opacity:1;vector-effect:none;fill:#ff0000;fill-opacity:1;fill-rule:evenodd;stroke:none;stroke-width:1;stroke-linecap:butt;stroke-linejoin:miter;stroke-miterlimit:4;stroke-dasharray:none;stroke-dashoffset:0;stroke-opacity:1;paint-order:normal"
       id="path4954"
       cx="9.9483376"
       cy="36.009094"
       r="4"
       inkscape:label="prob" />
    <circle
       r="4"
       cy="59.48621"
       cx="9.9483376"
       id="circle4956"
       style="display:inline;opacity:1;vector-effect:none;fill:#00ff00;fill-opacity:1;fill-rule:evenodd;stroke:none;stroke-width:1;stroke-linecap:butt;stroke-linejoin:miter;stroke-miterlimit:4;stroke-dasharray:none;stroke-dashoffset:0;stroke-opacity:1;paint-order:normal"
       inkscape:label="cv" />
    <circle
       r="4"
       cy="78.996117"
       cx="10.064189"
       id="circle4956-5"
       style="display:inline;vector-effect:none;fill:#00ff00;fill-opacity:1;fill-rule:evenodd;stroke:none;stroke-width:1;stroke-linecap:butt;stroke-linejoin:miter;stroke-miterlimit:4;stroke-dasharray:none;stroke-dashoffset:0;stroke-opacity:1;paint-order:normal"
       inkscape:label="rampin" />
    <circle
       style="display:inline;opacity:1;vector-effect:none;fill:#0000ff;fill-opacity:1;fill-rule:evenodd;stroke:none;stroke-width:1;stroke-linecap:butt;stroke-linejoin:miter;stroke-miterlimit:4;stroke-dasharray:none;stroke-dashoffset:0;stroke-opacity:1;paint-order:normal"
       id="circle4958"
       cx="4.9564905"
       cy="100.77509"
       r="4"
       inkscape:label="rampout" />
    <circle
       style="display:inline;vector-effect:none;fill:#0000ff;fill-opacity:1;fill-rule:evenodd;stroke:none;stroke-width:1;stroke-linecap:butt;stroke-linejoin:miter;stroke-miterlimit:4;stroke-dasharray:none;stroke-dashoffset:0;stroke-opacity:1;paint-order:normal"
       id="circle4958-9"
       cx="14.915919"
       cy="100.77002"
       r="4"
       inkscape:label="trig" />
    <circle
       inkscape:label="blink"
       r="4"
       cy="23.16404"
       cx="9.9483376"
       id="circle66"
       style="display:none;opacity:1;vector-effect:none;fill:#ff00ff;fill-opacity:1;fill-rule:evenodd;stroke:none;stroke-width:1;stroke-linecap:butt;stroke-linejoin:miter;stroke-miterlimit:4;stroke-dasharray:none;stroke-dashoffset:0;stroke-opacity:1;paint-order:normal" />
  </g>
</svg>
